<svg width="100" height="100" viewBox="0 0 100 100" fill="none" xmlns="http://www.w3.org/2000/svg">
<path d="M50.0541 45.3623C48.2131 45.3623 46.7207 46.8547 46.7207 48.6957C46.7205 50.0268 47.5027 51.1723 48.6307 51.7066V55.7588C48.6307 56.5447 49.2678 57.182 50.0539 57.182C50.84 57.182 51.4771 56.5449 51.4771 55.7588V51.7066C52.6053 51.1723 53.3875 50.0268 53.3875 48.6957C53.3875 46.8547 51.8951 45.3623 50.0541 45.3623Z" fill="#808080"/>
<path d="M85.574 21.709C79.4473 19.2846 74.5844 14.8193 71.8811 9.13613C71.1459 7.59062 69.5568 6.5918 67.8324 6.5918H32.168C30.4438 6.5918 28.8547 7.59043 28.1195 9.13613C25.4164 14.8193 20.5533 19.2846 14.4266 21.709C12.708 22.3889 11.5977 24.0271 11.5977 25.8824V34.5566C11.5977 45.9275 14.9135 57.1602 21.1867 67.0406C27.5209 77.0178 36.6994 85.3559 47.7293 91.1531L47.909 91.2477C48.5639 91.5918 49.282 91.7639 50.0004 91.7639C50.7184 91.7639 51.4367 91.5918 52.0912 91.2478L52.2715 91.1531C63.3016 85.3557 72.4799 77.0178 78.8143 67.0406C85.0873 57.16 88.4031 45.9273 88.4031 34.5566V25.8824C88.4031 24.027 87.2924 22.3889 85.574 21.709ZM85.5568 34.5568C85.5568 45.3863 82.3943 56.0914 76.4113 65.5152C70.3432 75.073 61.5377 83.0674 50.9477 88.6338L50.7674 88.7283C50.2871 88.981 49.7137 88.9809 49.2332 88.7283L49.0535 88.634C38.4631 83.0676 29.6576 75.0732 23.5893 65.5152C17.6062 56.0916 14.4437 45.3863 14.4437 34.5566V25.8824C14.4437 25.2025 14.848 24.6031 15.4736 24.3557C22.2725 21.6654 27.6762 16.6945 30.6896 10.3588C30.9555 9.79961 31.5357 9.43828 32.1678 9.43828H67.8326C68.4646 9.43828 69.0447 9.79961 69.3107 10.3588C72.3244 16.6945 77.7283 21.6654 84.527 24.3559C85.1525 24.6033 85.5568 25.2027 85.5568 25.8826V34.5568Z" fill="#808080"/>
<path d="M92.7099 48.0626C91.9433 47.8892 91.1812 48.3702 91.0082 49.137C86.6738 68.3122 73.473 84.9417 54.7902 94.7614L50.4486 97.0435C50.1683 97.1907 49.8335 97.1907 49.5533 97.0435L45.2117 94.7614C26.4996 84.9263 13.2921 68.2681 8.97593 49.0583C8.80385 48.2915 8.04214 47.8093 7.27554 47.9817C6.50874 48.154 6.02671 48.9153 6.19897 49.6821C10.6982 69.7077 24.4351 87.0567 43.8874 97.2808L48.229 99.5628C48.7839 99.8542 49.3923 100 50.0009 100C50.6093 100 51.2181 99.8542 51.7728 99.5626L56.1144 97.2806C75.5361 87.0726 89.2662 69.7536 93.7845 49.7644C93.9576 48.9978 93.4765 48.2358 92.7099 48.0626Z" fill="#808080"/>
<path d="M92.0158 16.2846C84.4164 15.4828 78.441 10.1486 77.4846 3.31309C77.2203 1.42422 75.5971 0 73.7088 0H26.29C24.402 0 22.7787 1.42422 22.5145 3.31309C21.5578 10.1488 15.5824 15.4828 7.9832 16.2846C6.05762 16.4877 4.60547 18.1145 4.60547 20.0684V35.3504C4.60547 37.5711 4.72051 39.8162 4.94746 42.0236C5.02285 42.7561 5.64082 43.3014 6.36152 43.3014C6.41016 43.3014 6.45937 43.2988 6.50879 43.2938C7.29062 43.2135 7.85938 42.5145 7.77891 41.7326C7.56191 39.6215 7.45176 37.4742 7.45176 35.3504V20.0684C7.45176 19.583 7.81641 19.1641 8.28184 19.115C17.1834 18.176 24.1951 11.84 25.3334 3.70742C25.4033 3.2084 25.8055 2.84629 26.29 2.84629H73.7086C74.1932 2.84629 74.5957 3.2084 74.6654 3.70742C75.8033 11.84 82.8152 18.1758 91.7168 19.115C92.1822 19.1641 92.5469 19.583 92.5469 20.0684V35.3504C92.5469 37.4518 92.4391 39.5768 92.2266 41.6668C92.1471 42.4486 92.7166 43.1471 93.4984 43.2266C94.2799 43.3066 94.9787 42.7365 95.0584 41.9547C95.2807 39.7695 95.3932 37.5477 95.3932 35.3504V20.0684C95.3934 18.1145 93.9414 16.4877 92.0158 16.2846Z" fill="#808080"/>
<path d="M66.3014 35.5205H63.9613V28.7271C63.9613 21.0594 57.7232 14.8213 50.0553 14.8213C42.3875 14.8213 36.1492 21.0594 36.1492 28.7271V35.5205H33.8094C31.3137 35.5205 29.2832 37.551 29.2832 40.0467V60.4234C29.2832 62.9191 31.3137 64.9496 33.8094 64.9496H66.3014C68.7971 64.9496 70.8275 62.9191 70.8275 60.4234V40.0467C70.8275 37.551 68.7971 35.5205 66.3014 35.5205ZM38.9957 28.7273C38.9957 22.6291 43.957 17.6678 50.0555 17.6678C56.1539 17.6678 61.1152 22.6291 61.1152 28.7273V35.5207H38.9957V28.7273ZM67.9812 60.4234C67.9812 61.3496 67.2275 62.1033 66.3014 62.1033H33.8094C32.883 62.1033 32.1295 61.3496 32.1295 60.4234V40.0467C32.1295 39.1205 32.8832 38.3668 33.8094 38.3668H66.3014C67.2275 38.3668 67.9812 39.1203 67.9812 40.0467V60.4234Z" fill="#E63D30"/>
</svg>
