<svg width="35" height="35" viewBox="0 0 35 35" fill="none" xmlns="http://www.w3.org/2000/svg">
<path fill-rule="evenodd" clip-rule="evenodd" d="M30.6485 20.5397L31.3989 20.9724C31.5609 20.1113 31.6427 19.2302 31.6427 18.3466C31.6427 17.2974 31.5273 16.2521 31.2996 15.2392C30.8764 13.3495 30.081 11.5948 28.9356 10.0236C26.5775 6.78884 22.9525 4.69622 18.9898 4.2816C18.498 4.22977 17.9966 4.20357 17.4996 4.20357C17.301 4.20357 17.1399 4.04243 17.1399 3.84387V2.94025L15.2552 4.57321L17.1399 6.26305V5.37879C17.1399 5.17959 17.301 5.01912 17.4996 5.01912C18.0253 5.0191 18.5533 5.04972 19.0691 5.10966C22.673 5.53304 25.9929 7.45016 28.1778 10.369C29.3971 11.9988 30.2362 13.9134 30.6043 15.9048C30.7528 16.7067 30.828 17.5285 30.828 18.3471C30.828 19.0847 30.7677 19.8209 30.6485 20.5397ZM31.6505 21.8929C31.5883 21.8929 31.5262 21.8767 31.4707 21.8448L30.0708 21.0368C29.9388 20.9606 29.8691 20.8095 29.897 20.6596C30.0375 19.9046 30.1086 19.1265 30.1086 18.3472C30.1086 17.5722 30.0375 16.7941 29.8969 16.0354C29.5488 14.152 28.7552 12.3417 27.6019 10.8005C25.5347 8.03842 22.394 6.22495 18.9853 5.82405C18.6148 5.78096 18.2374 5.75413 17.8593 5.7435V7.06924C17.8593 7.211 17.7758 7.33966 17.6462 7.39708C17.5166 7.45518 17.3651 7.43144 17.2594 7.33651L14.4711 4.83613C14.3942 4.76683 14.3507 4.66817 14.3516 4.56515C14.3524 4.46208 14.3977 4.36404 14.4757 4.29661L17.2641 1.88054C17.3705 1.78876 17.5209 1.76688 17.649 1.82557C17.7771 1.88365 17.8593 2.01166 17.8593 2.15279V3.48854C18.2627 3.49791 18.6668 3.52413 19.0649 3.56597C23.2295 4.00184 27.0391 6.20123 29.5169 9.59958C30.7208 11.2513 31.5567 13.0954 32.0015 15.0818C32.2407 16.1459 32.3621 17.2443 32.3621 18.3465C32.3621 19.4487 32.2407 20.5471 32.0014 21.6119C31.9764 21.7236 31.8997 21.8167 31.7949 21.8629C31.7488 21.8829 31.6996 21.8929 31.6505 21.8929Z" fill="#808080"/>
<path fill-rule="evenodd" clip-rule="evenodd" d="M4.33742 26.3606L6.69344 27.1761L7.21397 24.7001L6.44609 25.1435C6.27412 25.2428 6.05431 25.1841 5.95483 25.0124C5.69261 24.559 5.4553 24.0863 5.24954 23.6061C4.53396 21.9431 4.17104 20.1727 4.17104 18.3462C4.17104 16.5196 4.53396 14.7498 5.24972 13.0862C6.04769 11.2266 7.28668 9.54364 8.83264 8.21915C10.0234 7.2 11.365 6.40693 12.8238 5.86053V4.99438C11.0158 5.62885 9.32634 6.64423 7.91217 7.94938C6.48201 9.26886 5.35815 10.8344 4.57174 12.6029C3.76571 14.4132 3.35705 16.3453 3.35705 18.3455C3.35705 20.3457 3.76572 22.2784 4.57169 24.0894C4.77548 24.5465 5.00361 24.9937 5.24957 25.4177C5.29748 25.5007 5.31054 25.5988 5.2859 25.6912C5.26125 25.783 5.20094 25.8617 5.11824 25.9097L4.33742 26.3606ZM6.96148 28.0098C6.92179 28.0098 6.88203 28.0029 6.84376 27.9898L3.35797 26.7827C3.22489 26.7365 3.13097 26.6172 3.11759 26.4767C3.10421 26.3369 3.17384 26.2013 3.29578 26.1314L4.45042 25.4645C4.2587 25.1141 4.07908 24.7507 3.91455 24.3816C3.06725 22.4782 2.6377 20.4468 2.6377 18.3455C2.6377 16.2436 3.06725 14.2134 3.91447 12.3107C4.74088 10.4516 5.92179 8.80675 7.42429 7.42106C9.03733 5.9317 10.9919 4.80205 13.0767 4.15321C13.1858 4.11885 13.3047 4.13886 13.3968 4.20692C13.4888 4.27434 13.5432 4.38176 13.5432 4.49667V6.11278C13.5432 6.26517 13.447 6.40069 13.3033 6.4519C11.8354 6.97019 10.4886 7.74828 9.30056 8.76556C7.83784 10.0188 6.66563 11.6106 5.91071 13.3704C5.23367 14.944 4.89045 16.6176 4.89045 18.3461C4.89047 20.0747 5.23367 21.7489 5.91055 23.3225C6.05821 23.6666 6.22288 24.007 6.402 24.3386L7.55181 23.6741C7.67469 23.6029 7.82788 23.6111 7.94279 23.6941C8.05774 23.7778 8.11295 23.9208 8.08374 24.0594L7.31349 27.7238C7.29223 27.825 7.22857 27.9118 7.13867 27.963C7.08406 27.9936 7.0229 28.0098 6.96148 28.0098Z" fill="#808080"/>
<path fill-rule="evenodd" clip-rule="evenodd" d="M8.27918 29.0686C9.73964 30.3244 11.4626 31.2824 13.2905 31.8513C14.6466 32.274 16.0627 32.4882 17.4996 32.4882C17.9967 32.4882 18.498 32.462 18.9896 32.4101C22.9532 31.9955 26.5783 29.9023 28.9356 26.6682C29.2278 26.2666 29.5017 25.8458 29.7495 25.418C29.849 25.2463 30.0688 25.1869 30.2407 25.2862L31.0214 25.7371L30.55 23.2885L28.1446 24.076L28.9129 24.52C28.9955 24.5674 29.0559 24.6461 29.0805 24.7386C29.1051 24.8304 29.0922 24.929 29.0444 25.0115C28.7842 25.4611 28.4927 25.9032 28.178 26.3235C25.9928 29.2441 22.6728 31.1612 19.0692 31.584C18.5534 31.6446 18.0254 31.6752 17.4996 31.6752C15.9795 31.6752 14.4871 31.4204 13.064 30.9183C11.5928 30.4 10.2363 29.6325 9.02834 28.6359L8.27918 29.0686ZM17.4996 33.2076C15.99 33.2076 14.5019 32.9822 13.0766 32.5382C10.9919 31.8893 9.03735 30.7591 7.42429 29.2703C7.3403 29.1929 7.29815 29.0799 7.31081 28.9662C7.32346 28.8526 7.38941 28.7514 7.48845 28.6946L8.88692 27.8871C9.01905 27.8109 9.18491 27.8259 9.30083 27.9252C10.4896 28.9444 11.8362 29.7231 13.3032 30.2401C14.6493 30.7147 16.0612 30.9558 17.4996 30.9558C17.9975 30.9558 18.4974 30.9264 18.9855 30.8696C22.3938 30.4693 25.5345 28.6559 27.6019 25.8926C27.8273 25.5916 28.0401 25.2787 28.237 24.9602L27.0875 24.2958C26.9646 24.2252 26.8949 24.0885 26.9097 23.9474C26.9243 23.8062 27.0206 23.687 27.1555 23.6426L30.7141 22.478C30.8123 22.4455 30.9196 22.4574 31.0086 22.5098C31.0975 22.5623 31.1597 22.6503 31.1792 22.7515L31.8767 26.3747C31.9033 26.5127 31.8468 26.6538 31.7321 26.7356C31.6174 26.8174 31.4656 26.8243 31.3437 26.7537L30.1883 26.0868C29.9785 26.4296 29.7536 26.7669 29.5172 27.0916C27.0399 30.4906 23.2302 32.6899 19.0647 33.1258C18.5484 33.1801 18.0217 33.2076 17.4996 33.2076Z" fill="#808080"/>
<path fill-rule="evenodd" clip-rule="evenodd" d="M17.4998 14.5612C15.4131 14.5612 13.7155 16.2585 13.7155 18.3455C13.7155 20.4318 15.4131 22.1298 17.4998 22.1298C19.5864 22.1298 21.284 20.4318 21.284 18.3455C21.284 16.2585 19.5864 14.5612 17.4998 14.5612ZM17.4998 22.8492C15.0164 22.8492 12.9961 20.829 12.9961 18.3455C12.9961 15.862 15.0164 13.8418 17.4998 13.8418C19.9831 13.8418 22.0034 15.862 22.0034 18.3455C22.0034 20.829 19.9831 22.8492 17.4998 22.8492Z" fill="#E63D30"/>
<path fill-rule="evenodd" clip-rule="evenodd" d="M16.361 26.4529H18.6385V25.1509C18.6385 24.9817 18.756 24.8356 18.9211 24.7994C19.6809 24.6326 20.3996 24.3347 21.057 23.9132C21.1993 23.8221 21.3859 23.8421 21.5054 23.9619L22.4268 24.883L24.0375 23.2725L23.1161 22.3508C22.9966 22.2315 22.9764 22.0448 23.0676 21.9024C23.4887 21.2455 23.7867 20.5267 23.9536 19.7668C23.9898 19.6019 24.1359 19.4839 24.305 19.4839L25.6072 19.4839V17.2064H24.305C24.136 17.2064 23.9898 17.089 23.9536 16.9242C23.7869 16.1642 23.4889 15.4454 23.0677 14.7879C22.9764 14.6461 22.9967 14.4594 23.1162 14.3395L24.0375 13.4184L22.4268 11.8073L21.5054 12.729C21.3859 12.8483 21.1993 12.8689 21.057 12.7777C20.3999 12.3562 19.6813 12.0583 18.921 11.8916C18.756 11.8554 18.6384 11.7092 18.6384 11.54L18.6385 10.2379H16.361V11.54C16.361 11.7092 16.2434 11.8554 16.0784 11.8916C15.3185 12.0583 14.5999 12.3562 13.9424 12.7777C13.8001 12.8682 13.6135 12.8483 13.494 12.729L12.5726 11.8073L10.9619 13.4184L11.8832 14.3395C12.0028 14.4594 12.0229 14.6461 11.9318 14.7879C11.5108 15.4454 11.2126 16.1636 11.0458 16.9242C11.0096 17.089 10.8634 17.2064 10.6945 17.2064L9.39226 17.2064V19.4839H10.6945C10.8634 19.4839 11.0096 19.6019 11.0458 19.7668C11.2124 20.5267 11.5105 21.2455 11.9318 21.9024C12.0229 22.0448 12.0027 22.2315 11.8832 22.3508L10.9618 23.2725L12.5726 24.883L13.494 23.9619C13.6135 23.8427 13.8001 23.8221 13.9424 23.9132C14.5994 24.3341 15.3181 24.6326 16.0784 24.7994C16.2434 24.8356 16.361 24.9817 16.361 25.1509L16.361 26.4529ZM18.9981 27.1723H16.0013C15.8027 27.1723 15.6416 27.0112 15.6416 26.8126L15.6416 25.4338C14.9957 25.2652 14.3791 25.0092 13.8022 24.6713L12.8269 25.6461C12.6865 25.7866 12.4587 25.7866 12.3183 25.6461L10.1988 23.5267C10.1313 23.4592 10.0934 23.3681 10.0934 23.2725C10.0935 23.177 10.1313 23.0858 10.1988 23.0184L11.174 22.0429C10.8355 21.4659 10.5797 20.849 10.411 20.2033L9.03261 20.2032C8.83389 20.2032 8.67285 20.0421 8.67285 19.8436V16.8467C8.67285 16.6481 8.83389 16.487 9.03261 16.487L10.4111 16.487C10.5798 15.8413 10.8356 15.225 11.174 14.648L10.1988 13.6725C10.0584 13.532 10.0584 13.3047 10.1988 13.1642L12.3183 11.0442C12.3857 10.9767 12.4772 10.9392 12.5726 10.9392C12.668 10.9392 12.7595 10.9767 12.8269 11.0442L13.8022 12.0196C14.3794 11.6811 14.9959 11.4251 15.6416 11.2565L15.6416 9.87825C15.6416 9.67969 15.8027 9.51857 16.0013 9.51857L18.9981 9.51855C19.1968 9.51855 19.3578 9.67969 19.3578 9.87827V11.2565C20.0037 11.4257 20.6204 11.6811 21.1973 12.0196L22.1724 11.0442C22.24 10.9767 22.3314 10.9392 22.4268 10.9392C22.5222 10.9392 22.6137 10.9767 22.6811 11.0442L24.8006 13.1642C24.941 13.3047 24.941 13.532 24.8006 13.6725L23.8254 14.648C24.1639 15.225 24.4196 15.8413 24.5884 16.487L25.9668 16.487C26.1655 16.487 26.3265 16.6482 26.3265 16.8467V19.8435C26.3265 20.0421 26.1655 20.2033 25.9668 20.2033L24.5884 20.2032C24.4195 20.8496 24.1637 21.4659 23.8253 22.0429L24.8006 23.0184C24.8681 23.0858 24.9059 23.177 24.9059 23.2725C24.9059 23.3681 24.8681 23.4592 24.8006 23.5267L22.6811 25.6461C22.5406 25.7866 22.3129 25.7866 22.1724 25.6461L21.1972 24.6713C20.6201 25.0098 20.0035 25.2652 19.3577 25.4338V26.8126C19.3577 27.0112 19.1968 27.1723 18.9981 27.1723Z" fill="#E63D30"/>
</svg>
