<svg width="27" height="27" viewBox="0 0 27 27" fill="none" xmlns="http://www.w3.org/2000/svg">
<g clip-path="url(#clip0_2666_39)">
<path d="M1.85837 6.43013C1.80473 5.82177 1.84015 5.2092 1.96361 4.61113C2.12873 3.86633 2.45306 3.24803 2.92733 2.77392C3.59185 2.1089 4.52639 1.74442 5.70144 1.69045C6.27067 1.66903 6.84057 1.70799 7.40136 1.80632L7.5508 0.956783C6.92861 0.847661 6.29648 0.804652 5.66535 0.828771C4.26514 0.893367 3.13866 1.34251 2.31763 2.16422C1.72462 2.75706 1.32186 3.51839 1.12099 4.42797C1.12065 4.42966 1.12014 4.43151 1.1198 4.4332C0.978468 5.11458 0.938158 5.81283 0.999381 6.50586L1.85837 6.43013Z" fill="#808080"/>
<path d="M3.75002 12.0655C3.49028 11.5915 3.25213 11.1153 3.04198 10.6494L2.25586 11.0041C2.47512 11.49 2.72338 11.9867 2.99391 12.48L3.75002 12.0655Z" fill="#808080"/>
<path d="M1.25 8.096C1.35811 8.55796 1.4895 9.01435 1.64365 9.46316L2.4598 9.18436C2.31509 8.76305 2.19146 8.33482 2.09009 7.90137L1.25 8.096Z" fill="#808080"/>
<path d="M7.11768 16.8142C7.08007 16.7712 7.04262 16.7286 7.00535 16.6855L6.35449 17.2511C6.39261 17.2951 6.4309 17.3391 6.46969 17.3831C6.68861 17.6324 6.91647 17.8837 7.14702 18.1303C7.25041 18.2406 7.35481 18.3507 7.46039 18.4604L8.0819 17.8625C7.97902 17.7557 7.87732 17.6486 7.77697 17.5412C7.55231 17.3012 7.33069 17.0564 7.11768 16.8142Z" fill="#808080"/>
<path d="M5.31226 15.9843L5.99297 15.4551C5.9304 15.3745 5.8685 15.2938 5.80711 15.2129C5.54451 14.8675 5.29034 14.5168 5.05185 14.1709L4.3418 14.6603C4.58804 15.0174 4.84997 15.3788 5.1205 15.7345C5.18358 15.818 5.24767 15.9012 5.31226 15.9843Z" fill="#808080"/>
<path d="M8.19336 19.199C9.00815 19.994 9.86545 20.7442 10.7615 21.446C11.9769 22.4025 13.2741 23.2502 14.6382 23.9788C15.4349 24.403 16.2607 24.7703 17.109 25.0783L16.3214 25.3038L16.5585 26.1329L18.7636 25.502C18.9925 25.4365 19.1249 25.1977 19.0594 24.9687L18.4848 22.9603L17.6555 23.1974L18.0208 24.4733C16.9912 24.1475 15.9942 23.727 15.0426 23.2171C13.7235 22.5125 12.4692 21.6928 11.2942 20.7679C10.4224 20.0851 9.58817 19.3553 8.79547 18.582L8.19336 19.199Z" fill="#808080"/>
<path d="M25.8612 19.3403C25.6851 18.2403 25.3213 17.057 24.7797 15.8232L23.9901 16.1698C24.5021 17.3365 24.845 18.4493 25.0094 19.4764C25.3181 21.4049 24.9791 22.926 24.0294 23.8761C23.559 24.3465 22.9472 24.6689 22.211 24.8349C21.6158 24.9688 20.941 25.0007 20.2048 24.9302C20.0234 24.9128 19.8361 24.8887 19.6483 24.859L19.5137 25.7107C19.7184 25.7431 19.9233 25.7693 20.1225 25.7885C20.403 25.8153 20.6762 25.8288 20.9422 25.8288C21.4325 25.8318 21.9216 25.7804 22.4006 25.676C23.2986 25.4734 24.0516 25.073 24.6391 24.4856C25.7925 23.3321 26.215 21.5531 25.8612 19.3403Z" fill="#808080"/>
<path d="M23.7707 13.8262L23.0215 14.2532C23.2291 14.6175 23.4249 14.9845 23.6035 15.3439L24.376 14.9606C24.1903 14.5862 23.9867 14.2046 23.7707 13.8262Z" fill="#808080"/>
<path d="M21.7681 10.8281L21.083 11.352C21.4045 11.7725 21.7182 12.2067 22.0159 12.6434L22.7286 12.1578C22.422 11.7082 22.0988 11.2607 21.7681 10.8281Z" fill="#808080"/>
<path d="M19.6362 8.33594L19.0127 8.93131C19.3777 9.31366 19.7371 9.71153 20.0808 10.1134L20.7362 9.55299C20.3822 9.13926 20.0122 8.72976 19.6362 8.33594Z" fill="#808080"/>
<path d="M8.95115 3.8545L9.79445 3.6742L9.51599 2.37164C10.3073 2.65229 11.0774 2.99046 11.8197 3.38293C13.1216 4.07038 14.3609 4.87017 15.5231 5.77385C16.0711 6.19668 16.6231 6.6556 17.1637 7.13746C17.4634 7.40512 17.7653 7.68544 18.0608 7.97081C18.1888 8.09444 18.3195 8.22312 18.4497 8.35299L19.0594 7.74329C18.9258 7.60988 18.7916 7.47765 18.6597 7.35048C18.3565 7.05735 18.0463 6.76928 17.7381 6.49386C17.1822 5.9985 16.6144 5.52642 16.0516 5.09213C15.5034 4.66592 14.9359 4.26215 14.3537 3.87997C14.6844 3.69343 15.0167 3.51684 15.342 3.3551L14.9583 2.58281C14.5714 2.77474 14.1764 2.98624 13.7844 3.2109L14.0583 3.68888C13.4603 3.30787 12.8485 2.95183 12.2228 2.62042C11.6654 2.32611 11.0935 2.06114 10.5087 1.82603L11.2685 1.66378L11.0887 0.820312L8.84607 1.29964C8.61316 1.3494 8.46473 1.57844 8.51449 1.81136L8.95115 3.8545Z" fill="#808080"/>
<path d="M0.954737 19.4072C0.845615 20.0294 0.802606 20.6615 0.826893 21.2927C0.891153 22.6927 1.34029 23.819 2.16217 24.6406C2.75501 25.2336 3.51685 25.636 4.42592 25.8367C4.42761 25.8369 4.42946 25.8374 4.43149 25.8377C4.90677 25.9364 5.39133 25.9861 5.87707 25.9861C6.08604 25.9861 6.29501 25.977 6.50381 25.9586L6.42808 25.0993C5.81973 25.1533 5.20699 25.1177 4.60909 24.9939C3.86412 24.8293 3.24598 24.5053 2.77188 24.0309C2.10702 23.366 1.74238 22.4313 1.68841 21.2566C1.66699 20.6872 1.70561 20.1175 1.80428 19.5563L0.954737 19.4072Z" fill="#808080"/>
<path d="M11.0012 24.702C11.4874 24.4829 11.984 24.2343 12.4769 23.9641L12.0627 23.208C11.589 23.4676 11.1125 23.7059 10.6465 23.9159L11.0012 24.702Z" fill="#808080"/>
<path d="M8.09405 25.708C8.55617 25.5999 9.01257 25.4685 9.4612 25.3144L9.18241 24.498C8.76126 24.6429 8.33304 24.7662 7.89941 24.8679L8.09405 25.708Z" fill="#808080"/>
<path d="M16.6836 19.9532L17.2488 20.6045C17.293 20.5664 17.337 20.528 17.3812 20.4892C17.6306 20.2699 17.8821 20.0417 18.1283 19.8118C18.2386 19.7084 18.3488 19.604 18.4586 19.4983L17.8605 18.877C17.7537 18.98 17.6466 19.0814 17.539 19.1819C17.2994 19.406 17.0548 19.6278 16.8119 19.841C16.7693 19.8786 16.7266 19.9161 16.6836 19.9532Z" fill="#808080"/>
<path d="M14.1689 21.906L14.6584 22.6162C15.0154 22.3703 15.3769 22.1082 15.7328 21.8377C15.8161 21.7744 15.8992 21.7105 15.9824 21.6459L15.4531 20.9648C15.3727 21.0274 15.2919 21.0895 15.2111 21.151C14.8655 21.4136 14.5152 21.6676 14.1689 21.906Z" fill="#808080"/>
<path d="M19.4735 1.94881C21.4018 1.6405 22.9231 1.97934 23.8731 2.92923C24.3432 3.39929 24.6658 4.01118 24.832 4.74738C24.9657 5.34275 24.9979 6.01773 24.9271 6.75376C24.9099 6.9349 24.8861 7.12194 24.8561 7.31017L25.7078 7.44492C25.7402 7.2395 25.7663 7.03458 25.7856 6.83606C25.8648 6.00912 25.8271 5.24274 25.6731 4.55798C25.4707 3.66003 25.0703 2.90663 24.4828 2.31919C23.3292 1.16572 21.5497 0.743064 19.3374 1.09725C18.2379 1.27316 17.0542 1.63713 15.8203 2.17853L16.1669 2.96836C17.3335 2.45631 18.446 2.11325 19.4735 1.94881Z" fill="#808080"/>
<path d="M10.1115 6.87692L9.55086 6.22168C9.13714 6.5757 8.7278 6.94574 8.33398 7.32117L8.92952 7.94504C9.31204 7.5799 9.70991 7.22048 10.1115 6.87692Z" fill="#808080"/>
<path d="M12.6416 4.94225L12.1557 4.22949C11.7061 4.53628 11.2586 4.85944 10.8262 5.19001L11.35 5.8751C11.77 5.55381 12.2046 5.23993 12.6416 4.94225Z" fill="#808080"/>
<path d="M25.4994 8.19456C25.4339 7.96552 25.1951 7.83312 24.9662 7.89856L22.9577 8.47335L23.1948 9.30248L24.4709 8.93734C24.1449 9.96683 23.7242 10.9639 23.2144 11.9155C22.5097 13.2346 21.69 14.4889 20.7651 15.664C20.0822 16.5358 19.3526 17.3698 18.5791 18.1625L19.1962 18.7648C19.9913 17.95 20.7413 17.0927 21.4433 16.1966C22.3997 14.9814 23.2474 13.6841 23.976 12.32C24.4001 11.5231 24.7676 10.6976 25.0755 9.84911L25.301 10.6367L26.1302 10.3996L25.4994 8.19456Z" fill="#808080"/>
<path d="M1.71934 18.4541C1.74953 18.4541 1.77989 18.4509 1.80974 18.4444L3.85255 18.0079L3.67225 17.1644L2.36986 17.443C2.65051 16.6515 2.9885 15.8816 3.38114 15.1393C4.06826 13.8372 4.86838 12.5979 5.77189 11.4357C6.19455 10.8879 6.65348 10.3359 7.13551 9.79515C7.40317 9.49527 7.68348 9.19354 7.96885 8.89822C8.09383 8.76885 8.22235 8.63797 8.3512 8.50912L7.7415 7.89941C7.60927 8.03164 7.47704 8.1659 7.34869 8.29897C7.05539 8.60256 6.76732 8.91255 6.4919 9.22103C5.99604 9.77676 5.5243 10.3448 5.09017 10.9075C4.15613 12.1093 3.32903 13.3901 2.61863 14.7362C2.32415 15.2933 2.05902 15.8654 1.82425 16.4503L1.66183 15.69L0.818359 15.8701L1.29769 18.1128C1.34019 18.3118 1.51594 18.4538 1.71934 18.4541Z" fill="#808080"/>
<path d="M9.75586 10.0597V16.9002C9.75586 17.2652 9.96061 17.7791 10.9989 18.1547C11.6712 18.3979 12.55 18.532 13.4834 18.532H13.5168C14.056 18.532 14.594 18.4827 15.1243 18.3851C16.4685 18.1272 17.2479 17.586 17.2479 16.9002V10.0597C17.2479 9.69454 17.0197 9.18097 15.9813 8.80503C15.3088 8.56182 14.4181 8.42773 13.4836 8.42773C12.5487 8.42773 11.6739 8.56182 11.0014 8.80503C9.96314 9.1808 9.75586 9.69454 9.75586 10.0597ZM14.9629 17.5376C14.475 17.628 13.9798 17.6721 13.4837 17.6696C12.646 17.6696 11.8754 17.5537 11.2949 17.3439C10.727 17.1383 10.6182 16.9322 10.6182 16.9002V15.6966C10.7408 15.7616 10.8682 15.8176 10.9989 15.8639C11.6712 16.1073 12.55 16.2412 13.4851 16.2412C14.4203 16.2412 15.3125 16.1073 15.9848 15.8639C16.1322 15.8106 16.2238 15.7545 16.3855 15.6963V16.9C16.3855 16.981 16.0364 17.3316 14.9629 17.5376ZM16.3855 14.6093C16.3855 14.6417 16.2558 14.8476 15.6881 15.0532C15.1074 15.2633 14.3213 15.3789 13.4836 15.3789C12.646 15.3789 11.8754 15.2633 11.2949 15.0532C10.727 14.8476 10.6182 14.6415 10.6182 14.6093V13.4216C10.7408 13.4867 10.8682 13.5427 10.9989 13.5891C11.6712 13.8324 12.55 13.9664 13.4851 13.9664C14.4203 13.9664 15.3125 13.8324 15.9848 13.5891C16.1322 13.5358 16.2238 13.4796 16.3855 13.4216V14.6093ZM15.6881 12.7781C15.1074 12.9883 14.3213 13.1038 13.4836 13.1038C12.646 13.1038 11.8754 12.9883 11.2949 12.7781C10.727 12.5727 10.6182 12.3666 10.6182 12.3346V11.1465C10.741 11.2115 10.8682 11.2675 10.9989 11.314C11.6713 11.5574 12.5502 11.6913 13.4851 11.6913C14.42 11.6913 15.3124 11.5572 15.9848 11.314C16.1322 11.2605 16.2238 11.2044 16.3855 11.1465V12.3346C16.3855 12.3666 16.2558 12.5727 15.6881 12.7781ZM11.2792 9.61594C11.8599 9.40562 12.641 9.29009 13.4783 9.29009C14.3156 9.29009 15.0968 9.40562 15.6775 9.61594C16.245 9.82154 16.3646 10.0275 16.3646 10.0597C16.3646 10.0916 16.245 10.2975 15.6775 10.5031C15.0968 10.7134 14.3156 10.8289 13.4783 10.8289C12.641 10.8289 11.8599 10.7131 11.2792 10.5031C10.7113 10.2975 10.5919 10.0916 10.5919 10.0597C10.5919 10.0275 10.7115 9.82154 11.2794 9.61594H11.2792Z" fill="#E63D30"/>
</g>
<defs>
<clipPath id="clip0_2666_39">
<rect width="27" height="27" fill="white"/>
</clipPath>
</defs>
</svg>
