<svg width="26" height="26" viewBox="0 0 26 26" fill="none" xmlns="http://www.w3.org/2000/svg">
<g clip-path="url(#clip0_2669_77)">
<path d="M17.4773 19.1056H8.52185C7.62257 19.1056 6.89355 18.3766 6.89355 17.4773V8.52185C6.89355 7.62257 7.62257 6.89355 8.52185 6.89355H17.4773C18.3766 6.89355 19.1056 7.62257 19.1056 8.52185V17.4773C19.1056 18.3766 18.3766 19.1056 17.4773 19.1056Z" fill="white"/>
<path d="M17.4777 17.8848H8.52229C8.29749 17.8848 8.11523 17.7026 8.11523 17.4778V8.5223C8.11523 8.29749 8.29749 8.11523 8.52229 8.11523H17.4778C17.7026 8.11523 17.8848 8.29749 17.8848 8.5223V17.4778C17.8848 17.7026 17.7026 17.8848 17.4777 17.8848Z" fill="white"/>
<path d="M2.00933 10.5577C2.4589 10.5577 2.82335 10.1933 2.82335 9.74371C2.82335 9.29414 2.4589 8.92969 2.00933 8.92969C1.55976 8.92969 1.19531 9.29414 1.19531 9.74371C1.19531 10.1933 1.55976 10.5577 2.00933 10.5577Z" fill="white"/>
<path d="M23.9908 17.0704C24.4403 17.0704 24.8048 16.706 24.8048 16.2564C24.8048 15.8068 24.4403 15.4424 23.9908 15.4424C23.5412 15.4424 23.1768 15.8068 23.1768 16.2564C23.1768 16.706 23.5412 17.0704 23.9908 17.0704Z" fill="white"/>
<path d="M1.19488 20.7335C1.64445 20.7335 2.0089 20.3691 2.0089 19.9195C2.0089 19.4699 1.64445 19.1055 1.19488 19.1055C0.745309 19.1055 0.380859 19.4699 0.380859 19.9195C0.380859 20.3691 0.745309 20.7335 1.19488 20.7335Z" fill="white"/>
<path d="M24.8052 6.89367C25.2548 6.89367 25.6193 6.52922 25.6193 6.07965C25.6193 5.63007 25.2548 5.26562 24.8052 5.26562C24.3557 5.26562 23.9912 5.63007 23.9912 6.07965C23.9912 6.52922 24.3557 6.89367 24.8052 6.89367Z" fill="white"/>
<path d="M16.2564 2.82335C16.706 2.82335 17.0704 2.4589 17.0704 2.00933C17.0704 1.55976 16.706 1.19531 16.2564 1.19531C15.8068 1.19531 15.4424 1.55976 15.4424 2.00933C15.4424 2.4589 15.8068 2.82335 16.2564 2.82335Z" fill="white"/>
<path d="M9.74371 24.8048C10.1933 24.8048 10.5577 24.4403 10.5577 23.9908C10.5577 23.5412 10.1933 23.1768 9.74371 23.1768C9.29414 23.1768 8.92969 23.5412 8.92969 23.9908C8.92969 24.4403 9.29414 24.8048 9.74371 24.8048Z" fill="white"/>
<path d="M6.07965 2.0089C6.52922 2.0089 6.89367 1.64445 6.89367 1.19488C6.89367 0.745309 6.52922 0.380859 6.07965 0.380859C5.63007 0.380859 5.26562 0.745309 5.26562 1.19488C5.26562 1.64445 5.63007 2.0089 6.07965 2.0089Z" fill="white"/>
<path d="M19.9195 25.6193C20.3691 25.6193 20.7335 25.2548 20.7335 24.8052C20.7335 24.3557 20.3691 23.9912 19.9195 23.9912C19.4699 23.9912 19.1055 24.3557 19.1055 24.8052C19.1055 25.2548 19.4699 25.6193 19.9195 25.6193Z" fill="white"/>
<path d="M12.9995 16.466C13.1156 16.466 13.2261 16.5155 13.3032 16.6019C13.5691 16.9001 13.9591 17.071 14.3734 17.071C15.0857 17.071 15.684 16.5723 15.7353 15.9358C15.746 15.8033 15.8212 15.6842 15.9361 15.617C16.3844 15.3553 16.6631 14.8985 16.6631 14.4251C16.6631 14.0834 16.5208 13.7514 16.262 13.4903C16.105 13.3317 16.105 13.0761 16.262 12.9174C16.5208 12.6563 16.6631 12.3243 16.6631 11.9826C16.6631 11.3679 16.2143 10.8261 15.5465 10.6343C15.3386 10.5746 15.2137 10.3623 15.2622 10.1515C15.2805 10.072 15.2893 10.0072 15.2893 9.94734C15.2893 9.38621 14.7757 8.92969 14.1444 8.92969C13.818 8.92969 13.5056 9.05512 13.2881 9.27373C13.1347 9.42719 12.8644 9.42719 12.7109 9.27373C12.4935 9.05507 12.181 8.92969 11.8546 8.92969C11.2234 8.92969 10.7098 9.38626 10.7098 9.94734C10.7098 10.0145 10.7173 10.0821 10.7317 10.1479C10.7778 10.3578 10.6533 10.5673 10.4466 10.6267C9.78235 10.8181 9.33594 11.3629 9.33594 11.9826C9.33594 12.279 9.44248 12.5648 9.64403 12.8095C9.76367 12.9552 9.76803 13.1639 9.65398 13.3142C9.44608 13.5888 9.33594 13.9027 9.33594 14.2215C9.33594 14.7295 9.61102 15.2163 10.0722 15.5238C10.1843 15.5986 10.2522 15.7241 10.2534 15.8591C10.259 16.5273 10.8748 17.071 11.6257 17.071C12.0399 17.071 12.4299 16.9 12.6959 16.6019C12.7729 16.5155 12.8834 16.466 12.9995 16.466Z" fill="white"/>
<path d="M25.6194 12.6191H19.4871V11.7526H21.1416C21.352 11.7526 21.5225 11.582 21.5225 11.3717C21.5225 11.1614 21.352 10.9908 21.1416 10.9908H19.4871V10.1243H20.6358C21.0637 10.1243 21.4661 9.95766 21.7686 9.65505L24.2735 7.15023C24.4367 7.23153 24.6176 7.27479 24.8053 7.27479C25.1245 7.27479 25.4246 7.15048 25.6503 6.92481C25.876 6.69909 26.0003 6.39902 26.0003 6.07981C26.0003 5.7606 25.876 5.46054 25.6503 5.23482C25.4246 5.00909 25.1245 4.88478 24.8053 4.88478C24.4861 4.88478 24.186 5.00909 23.9603 5.23476C23.7346 5.46049 23.6103 5.76055 23.6103 6.07976C23.6103 6.26745 23.6535 6.44838 23.7348 6.61159L21.23 9.11642C21.0713 9.27511 20.8603 9.36255 20.6358 9.36255H19.4871V8.52223C19.4871 7.41439 18.5858 6.51313 17.478 6.51313H16.6377V3.14152C17.1103 2.98212 17.4518 2.53489 17.4518 2.0091C17.4518 1.35017 16.9157 0.814122 16.2568 0.814122C15.5979 0.814122 15.0618 1.35022 15.0618 2.0091C15.0618 2.53489 15.4033 2.98207 15.8759 3.14152V6.51308H15.0094V4.85858C15.0094 4.64824 14.8389 4.47772 14.6286 4.47772C14.4182 4.47772 14.2477 4.64824 14.2477 4.85858V6.51308H13.3811V0.380858C13.3811 0.170523 13.2106 0 13.0003 0C12.7899 0 12.6194 0.170523 12.6194 0.380858V6.51308H11.7529V4.85858C11.7529 4.64824 11.5824 4.47772 11.372 4.47772C11.1617 4.47772 10.9912 4.64824 10.9912 4.85858V6.51308H10.1246V5.36446C10.1246 4.93653 9.95797 4.53419 9.65536 4.23164L7.14968 1.72595C7.37103 1.27902 7.29684 0.721751 6.92517 0.350034C6.45921 -0.115882 5.7011 -0.115832 5.23518 0.350034C4.76926 0.81595 4.76926 1.57406 5.23518 2.04003C5.46816 2.27296 5.77417 2.38945 6.08018 2.38945C6.26238 2.38945 6.44428 2.34715 6.61109 2.26453L9.11678 4.77027C9.27552 4.92896 9.36292 5.14001 9.36292 5.36446V6.51308H8.52259C8.35273 6.51308 8.18378 6.5344 8.02047 6.5764C7.81679 6.62881 7.69415 6.83645 7.74656 7.04018C7.79896 7.24392 8.00666 7.36655 8.21034 7.3141C8.31165 7.28805 8.41666 7.27479 8.52254 7.27479H17.478C18.1658 7.27479 18.7254 7.8344 18.7254 8.52218V17.4777C18.7254 17.5834 18.7122 17.6884 18.6862 17.7896C18.6338 17.9934 18.7565 18.2009 18.9602 18.2533C18.992 18.2615 19.0239 18.2654 19.0553 18.2654C19.225 18.2654 19.3797 18.1512 19.4239 17.9792C19.4658 17.8161 19.4871 17.6473 19.4871 17.4776V16.6373H22.8586C23.018 17.11 23.4653 17.4514 23.9911 17.4514C24.65 17.4514 25.186 16.9154 25.186 16.2564C25.186 15.5975 24.6499 15.0615 23.9911 15.0615C23.4653 15.0615 23.0181 15.4029 22.8586 15.8756H19.4871V15.009H21.1416C21.3519 15.009 21.5224 14.8385 21.5224 14.6281C21.5224 14.4178 21.3519 14.2473 21.1416 14.2473H19.4871V13.3808H25.6194C25.8297 13.3808 26.0002 13.2103 26.0002 12.9999C26.0002 12.7896 25.8297 12.6191 25.6194 12.6191ZM24.4989 5.77345C24.5807 5.69159 24.6895 5.64655 24.8052 5.64655C24.921 5.64655 25.0297 5.69159 25.1116 5.77345C25.1935 5.85531 25.2385 5.96408 25.2385 6.07981C25.2385 6.19554 25.1935 6.30432 25.1116 6.38617C25.0297 6.46803 24.921 6.51308 24.8052 6.51308C24.6895 6.51308 24.5807 6.46803 24.4989 6.38617C24.417 6.30432 24.372 6.19554 24.372 6.07981C24.372 5.96408 24.417 5.85526 24.4989 5.77345ZM16.2568 1.57584C16.4957 1.57584 16.6901 1.77023 16.6901 2.0091C16.6901 2.24798 16.4957 2.44237 16.2568 2.44237C16.0179 2.44237 15.8235 2.24798 15.8235 2.0091C15.8235 1.77023 16.0179 1.57584 16.2568 1.57584ZM5.77371 1.50139C5.60476 1.33244 5.60476 1.05757 5.77371 0.888668C5.85821 0.804169 5.96912 0.76197 6.08013 0.76197C6.19108 0.76197 6.30204 0.804219 6.38649 0.888668C6.55544 1.05762 6.55544 1.33249 6.38649 1.50144C6.21759 1.67029 5.94271 1.67034 5.77371 1.50139ZM23.9911 15.8232C24.23 15.8232 24.4244 16.0176 24.4244 16.2565C24.4244 16.4954 24.23 16.6897 23.9911 16.6897C23.7522 16.6897 23.5578 16.4954 23.5578 16.2565C23.5578 16.0176 23.7522 15.8232 23.9911 15.8232Z" fill="#808080"/>
<path d="M19.3892 23.7355L16.8835 21.2298C16.7247 21.0711 16.6373 20.86 16.6373 20.6356V19.487H17.4777C17.6475 19.487 17.8164 19.4656 17.9797 19.4237C18.1834 19.3712 18.306 19.1636 18.2536 18.9599C18.2012 18.7562 17.9937 18.6335 17.7898 18.686C17.6886 18.712 17.5835 18.7252 17.4777 18.7252H8.52223C7.8344 18.7252 7.27484 18.1656 7.27484 17.4778V8.52238C7.27484 8.4165 7.28805 8.31149 7.3141 8.21028C7.36655 8.0066 7.24392 7.79896 7.04023 7.7465C6.8365 7.69404 6.62886 7.81668 6.57645 8.02036C6.5344 8.18357 6.51313 8.35247 6.51313 8.52238V9.36271H3.14152C2.98212 8.89004 2.53489 8.54859 2.0091 8.54859C1.35017 8.54859 0.814122 9.08463 0.814122 9.74356C0.814122 10.4025 1.35022 10.9385 2.0091 10.9385C2.53489 10.9385 2.98207 10.5971 3.14152 10.1244H6.51308V10.991H4.85858C4.64824 10.991 4.47772 11.1615 4.47772 11.3719C4.47772 11.5822 4.64824 11.7527 4.85858 11.7527H6.51308V12.6192H0.380858C0.170523 12.6192 0 12.7898 0 13.0001C0 13.2104 0.170523 13.381 0.380858 13.381H6.51308V14.2475H4.85858C4.64824 14.2475 4.47772 14.418 4.47772 14.6283C4.47772 14.8387 4.64824 15.0092 4.85858 15.0092H6.51308V15.8758H5.36441C4.93648 15.8758 4.53414 16.0424 4.23159 16.345L1.72676 18.8498C1.56355 18.7685 1.38262 18.7253 1.19493 18.7253C0.875719 18.7253 0.575654 18.8496 0.349932 19.0752C0.124312 19.301 0 19.6011 0 19.9202C0 20.2394 0.124312 20.5395 0.350034 20.7652C0.575705 20.991 0.875821 21.1152 1.19503 21.1152C1.51424 21.1152 1.81431 20.9909 2.04003 20.7652C2.26575 20.5395 2.39006 20.2394 2.39006 19.9202C2.39006 19.7326 2.3468 19.5516 2.26549 19.3884L4.77032 16.8836C4.92901 16.7249 5.14006 16.6374 5.36456 16.6374H6.51323V17.4778C6.51323 18.5856 7.41454 19.4869 8.52233 19.4869H9.36265V22.8584C8.88998 23.0178 8.54853 23.4651 8.54853 23.9909C8.54853 24.6498 9.08463 25.1858 9.74351 25.1858C10.4024 25.1858 10.9385 24.6497 10.9385 23.9909C10.9385 23.4651 10.597 23.0179 10.1244 22.8584V19.4869H10.9909V21.1414C10.9909 21.3517 11.1614 21.5222 11.3718 21.5222C11.5821 21.5222 11.7526 21.3517 11.7526 21.1414V19.4869H12.6191V25.6192C12.6191 25.8295 12.7896 26.0001 12.9999 26.0001C13.2103 26.0001 13.3808 25.8295 13.3808 25.6192V19.487H14.2473V21.1415C14.2473 21.3518 14.4179 21.5223 14.6282 21.5223C14.8385 21.5223 15.009 21.3518 15.009 21.1415V19.487H15.8756V20.6356C15.8756 21.0635 16.0422 21.4659 16.3448 21.7684L18.8505 24.2741C18.6292 24.721 18.7034 25.2783 19.0751 25.65C19.308 25.883 19.6141 25.9994 19.9201 25.9994C20.2261 25.9994 20.5321 25.883 20.7651 25.65C21.231 25.1841 21.231 24.426 20.7651 23.9601C20.3934 23.5884 19.8361 23.5142 19.3892 23.7355ZM2.0091 10.1768C1.77018 10.1768 1.57584 9.98244 1.57584 9.74356C1.57584 9.50464 1.77023 9.3103 2.0091 9.3103C2.24798 9.3103 2.44237 9.50469 2.44237 9.74356C2.44242 9.98249 2.24803 10.1768 2.0091 10.1768ZM1.50134 20.2266C1.41948 20.3085 1.31071 20.3535 1.19498 20.3535C1.07925 20.3535 0.970477 20.3085 0.888618 20.2266C0.806759 20.1447 0.761716 20.036 0.761716 19.9202C0.761716 19.8045 0.806759 19.6957 0.888618 19.6139C0.970477 19.532 1.07925 19.487 1.19498 19.487C1.31071 19.487 1.41948 19.532 1.50134 19.6139C1.5832 19.6957 1.62824 19.8045 1.62824 19.9202C1.62824 20.036 1.5832 20.1448 1.50134 20.2266ZM9.74341 24.4242C9.50449 24.4242 9.31015 24.2298 9.31015 23.991C9.31015 23.7521 9.50454 23.5577 9.74341 23.5577C9.98228 23.5577 10.1767 23.7521 10.1767 23.991C10.1767 24.2298 9.98234 24.4242 9.74341 24.4242ZM20.2265 25.1114C20.0576 25.2804 19.7827 25.2803 19.6137 25.1114C19.4448 24.9425 19.4448 24.6676 19.6137 24.4987C19.6982 24.4143 19.8092 24.372 19.9201 24.372C20.0311 24.372 20.142 24.4143 20.2265 24.4987C20.3954 24.6676 20.3954 24.9425 20.2265 25.1114Z" fill="#808080"/>
<path d="M9.87189 15.8489V15.8498C9.87189 16.7332 10.659 17.4519 11.6266 17.4519C12.1827 17.4519 12.6788 17.2143 13.0005 16.8447C13.3222 17.2143 13.8182 17.4519 14.3743 17.4519C15.3055 17.4519 16.0692 16.7862 16.1253 15.9487C16.6909 15.6205 17.0449 15.0458 17.0449 14.4251C17.0449 13.9686 16.8502 13.5331 16.5152 13.2039C16.8502 12.8748 17.0449 12.4392 17.0449 11.9827C17.0449 11.1682 16.4491 10.4783 15.6335 10.2541C15.6576 10.1545 15.671 10.052 15.671 9.94739C15.671 9.17623 14.9866 8.54883 14.1453 8.54883C13.6896 8.54883 13.2803 8.73311 13.0005 9.02439C12.7207 8.73311 12.3113 8.54883 11.8556 8.54883C11.0143 8.54883 10.3299 9.17623 10.3299 9.94739C10.3299 10.052 10.3433 10.1545 10.3674 10.2541C9.55182 10.4782 8.95605 11.1682 8.95605 11.9827C8.95605 12.3808 9.09692 12.7564 9.35717 13.0666C9.10271 13.396 8.95605 13.7959 8.95605 14.2216C8.95595 14.8692 9.30198 15.4738 9.87189 15.8489ZM10.9302 10.939C10.9336 10.9391 10.937 10.9395 10.9403 10.9395C11.0273 10.9395 11.1147 10.9099 11.1862 10.8494C11.3322 10.7258 11.3615 10.516 11.2635 10.3583C11.2606 10.3536 11.258 10.3488 11.2549 10.3443C11.2533 10.342 11.2515 10.3398 11.2498 10.3375C11.2439 10.3293 11.2379 10.3211 11.2314 10.3133L11.2308 10.3126C11.1673 10.2375 11.0914 10.1132 11.0914 9.94734C11.0914 9.59619 11.4342 9.31049 11.8554 9.31049C12.2767 9.31049 12.6195 9.59619 12.6195 9.94734C12.6195 10.1577 12.79 10.3282 13.0003 10.3282C13.2106 10.3282 13.3812 10.1577 13.3812 9.94734C13.3812 9.59619 13.7239 9.31049 14.1452 9.31049C14.5664 9.31049 14.9092 9.59619 14.9092 9.94734C14.9092 10.0412 14.8846 10.1212 14.852 10.187C14.6354 10.2075 14.4259 10.2598 14.227 10.3437C14.0331 10.4254 13.9423 10.6488 14.024 10.8427C14.1057 11.0364 14.3291 11.1274 14.5229 11.0456C14.6876 10.9762 14.8647 10.9405 15.0494 10.9391C15.0531 10.9392 15.0567 10.9395 15.0603 10.9395C15.0637 10.9395 15.0671 10.9391 15.0705 10.939C15.7399 10.9434 16.283 11.4098 16.283 11.9826C16.283 12.3427 16.0639 12.6733 15.6969 12.867C15.572 12.933 15.4938 13.0626 15.4938 13.2039C15.4938 13.3451 15.572 13.4748 15.6969 13.5407C16.0639 13.7344 16.283 14.065 16.283 14.4251C16.283 14.6936 16.1582 14.9497 15.9475 15.1412C15.7473 14.7704 15.3934 14.4753 14.9462 14.3348C14.7457 14.2718 14.5318 14.3834 14.4687 14.584C14.4057 14.7847 14.5173 14.9985 14.7179 15.0615C15.1062 15.1835 15.3671 15.5003 15.3671 15.8499C15.3671 16.3132 14.9217 16.6902 14.3741 16.6902C13.8266 16.6902 13.3811 16.3132 13.3811 15.8499V13.4075C13.3811 12.9441 13.8266 12.5671 14.3741 12.5671C14.5844 12.5671 14.7549 12.3966 14.7549 12.1863C14.7549 11.9759 14.5844 11.8054 14.3741 11.8054C14.0057 11.8054 13.6637 11.9098 13.3811 12.0876V11.6011C13.3811 11.3908 13.2106 11.2203 13.0003 11.2203C12.7899 11.2203 12.6194 11.3908 12.6194 11.6011V13.7155C12.4912 13.6351 12.3507 13.5685 12.1986 13.5207C11.9978 13.4576 11.7842 13.5692 11.7211 13.7698C11.6581 13.9705 11.7696 14.1843 11.9703 14.2474C12.3585 14.3694 12.6194 14.6862 12.6194 15.0357V15.8498C12.6194 16.3132 12.1739 16.6902 11.6264 16.6902C11.0789 16.6902 10.6334 16.3132 10.6334 15.8498C10.6334 15.6512 10.7176 15.4581 10.8704 15.3062C11.0196 15.1579 11.0204 14.9168 10.8721 14.7676C10.7238 14.6184 10.4827 14.6177 10.3335 14.766C10.2422 14.8567 10.1637 14.9558 10.0984 15.0612C9.85788 14.8337 9.71747 14.5344 9.71747 14.2215C9.71747 13.6572 10.1603 13.1615 10.7944 13.016C10.9994 12.969 11.1275 12.7647 11.0805 12.5597C11.0335 12.3546 10.8291 12.2266 10.6241 12.2736C10.3688 12.3322 10.1338 12.4299 9.92541 12.5582C9.79029 12.3885 9.71752 12.1898 9.71752 11.9826C9.71767 11.4098 10.2607 10.9434 10.9302 10.939Z" fill="#E63D30"/>
</g>
<defs>
<clipPath id="clip0_2669_77">
<rect width="26" height="26" fill="white"/>
</clipPath>
</defs>
</svg>
