<svg width="28" height="28" viewBox="0 0 28 28" fill="none" xmlns="http://www.w3.org/2000/svg">
<path d="M5.10781 20.3273C4.96016 20.3273 4.83984 20.207 4.83984 20.0594V18.6867C4.83984 18.3039 5.15156 17.9922 5.53437 17.9922H6.21797C6.30547 17.9922 6.37656 17.9211 6.37656 17.8336V16.2641C6.37656 16.1164 6.49688 15.9961 6.64453 15.9961C6.79219 15.9961 6.9125 16.1164 6.9125 16.2641V17.8336C6.9125 18.2164 6.60078 18.5281 6.21797 18.5281H5.53437C5.44687 18.5281 5.37578 18.5992 5.37578 18.6867V20.0594C5.37578 20.2125 5.25547 20.3273 5.10781 20.3273Z" fill="#808080"/>
<path d="M5.10742 22.318C4.41289 22.318 3.84961 21.7547 3.84961 21.0547C3.84961 20.3602 4.41289 19.7969 5.10742 19.7969C5.80195 19.7969 6.3707 20.3602 6.3707 21.0547C6.3707 21.7492 5.80195 22.318 5.10742 22.318ZM5.10742 20.3328C4.7082 20.3328 4.38008 20.6609 4.38008 21.0602C4.38008 21.4594 4.7082 21.7875 5.10742 21.7875C5.50664 21.7875 5.83477 21.4594 5.83477 21.0602C5.83477 20.6555 5.50664 20.3328 5.10742 20.3328Z" fill="#808080"/>
<path d="M8.09902 22.1816C7.95137 22.1816 7.83105 22.0613 7.83105 21.9137V20.4918C7.83105 20.109 8.14277 19.7973 8.52559 19.7973H10.0623C10.1498 19.7973 10.2209 19.7262 10.2209 19.6387V16.2699C10.2209 16.1223 10.3412 16.002 10.4889 16.002C10.6365 16.002 10.7568 16.1223 10.7568 16.2699V19.6387C10.7568 20.0215 10.4451 20.3332 10.0623 20.3332H8.52559C8.43809 20.3332 8.36699 20.4043 8.36699 20.4918V21.9137C8.36699 22.0613 8.24668 22.1816 8.09902 22.1816Z" fill="#808080"/>
<path d="M8.09922 24.166C7.40469 24.166 6.83594 23.6027 6.83594 22.9082C6.83594 22.2137 7.39922 21.6504 8.09922 21.6504C8.79922 21.6504 9.35703 22.2137 9.35703 22.9082C9.35703 23.6027 8.79922 24.166 8.09922 24.166ZM8.09922 22.1809C7.7 22.1809 7.37188 22.509 7.37188 22.9082C7.37188 23.3074 7.7 23.6355 8.09922 23.6355C8.49844 23.6355 8.82656 23.3074 8.82656 22.9082C8.82656 22.509 8.50391 22.1809 8.09922 22.1809Z" fill="#808080"/>
<path d="M22.8916 20.3273C22.7439 20.3273 22.6236 20.207 22.6236 20.0594V18.6867C22.6236 18.5992 22.5525 18.5281 22.465 18.5281H21.7814C21.3986 18.5281 21.0869 18.2164 21.0869 17.8336V16.2641C21.0869 16.1164 21.2072 15.9961 21.3549 15.9961C21.5025 15.9961 21.6229 16.1164 21.6229 16.2641V17.8336C21.6229 17.9211 21.6939 17.9922 21.7814 17.9922H22.465C22.8479 17.9922 23.1596 18.3039 23.1596 18.6867V20.0594C23.1596 20.2125 23.0393 20.3273 22.8916 20.3273Z" fill="#808080"/>
<path d="M22.8912 22.318C22.1967 22.318 21.6279 21.7547 21.6279 21.0547C21.6279 20.3602 22.1912 19.7969 22.8912 19.7969C23.5857 19.7969 24.149 20.3602 24.149 21.0547C24.149 21.7492 23.5857 22.318 22.8912 22.318ZM22.8912 20.3328C22.492 20.3328 22.1639 20.6609 22.1639 21.0602C22.1639 21.4594 22.492 21.7875 22.8912 21.7875C23.2904 21.7875 23.6186 21.4594 23.6186 21.0602C23.6186 20.6555 23.2904 20.3328 22.8912 20.3328Z" fill="#808080"/>
<path d="M19.9 22.1816C19.7523 22.1816 19.632 22.0613 19.632 21.9137V20.4918C19.632 20.4043 19.5609 20.3332 19.4734 20.3332H17.9367C17.5539 20.3332 17.2422 20.0215 17.2422 19.6387V16.2699C17.2422 16.1223 17.3625 16.002 17.5102 16.002C17.6578 16.002 17.7781 16.1223 17.7781 16.2699V19.6387C17.7781 19.7262 17.8492 19.7973 17.9367 19.7973H19.4734C19.8563 19.7973 20.168 20.109 20.168 20.4918V21.9137C20.1625 22.0613 20.0477 22.1816 19.9 22.1816Z" fill="#808080"/>
<path d="M19.9004 24.166C19.2059 24.166 18.6426 23.6027 18.6426 22.9082C18.6426 22.2137 19.2059 21.6504 19.9004 21.6504C20.5949 21.6504 21.1582 22.2137 21.1582 22.9082C21.1582 23.6027 20.5949 24.166 19.9004 24.166ZM19.9004 22.1809C19.5012 22.1809 19.173 22.509 19.173 22.9082C19.173 23.3074 19.5012 23.6355 19.9004 23.6355C20.2996 23.6355 20.6277 23.3074 20.6277 22.9082C20.6277 22.509 20.2996 22.1809 19.9004 22.1809Z" fill="#808080"/>
<path d="M13.9996 24.167C13.3051 24.167 12.7363 23.6037 12.7363 22.9092C12.7363 22.2146 13.2996 21.6514 13.9996 21.6514C14.6941 21.6514 15.2574 22.2146 15.2574 22.9092C15.2574 23.6037 14.6941 24.167 13.9996 24.167ZM13.9996 22.1818C13.6004 22.1818 13.2723 22.51 13.2723 22.9092C13.2723 23.3084 13.6004 23.6365 13.9996 23.6365C14.3988 23.6365 14.727 23.3084 14.727 22.9092C14.727 22.51 14.3988 22.1818 13.9996 22.1818Z" fill="#808080"/>
<path d="M14.0053 22.1816C13.8576 22.1816 13.7373 22.0613 13.7373 21.9137V16.2699C13.7373 16.1223 13.8576 16.002 14.0053 16.002C14.1529 16.002 14.2732 16.1223 14.2732 16.2699V21.9082C14.2732 22.0613 14.1529 22.1816 14.0053 22.1816Z" fill="#808080"/>
<path d="M22.3344 16.5379H5.66562C3.77891 16.5379 2.24219 15.0012 2.24219 13.1145C2.24219 11.3207 3.63125 9.83867 5.39219 9.70195C5.40859 8.69023 5.78047 7.76055 6.45312 7.06055C7.16406 6.3168 8.15938 5.8957 9.1875 5.8957C9.66328 5.8957 10.1172 5.9832 10.5492 6.15273C11.1125 4.75273 12.4633 3.83398 13.9945 3.83398C15.5258 3.83398 16.8766 4.75273 17.4398 6.15273C17.8719 5.9832 18.3312 5.8957 18.8016 5.8957C19.8297 5.8957 20.8305 6.32227 21.5359 7.06055C22.2031 7.76055 22.575 8.69023 22.5969 9.70195C24.3688 9.84414 25.7578 11.3207 25.7578 13.1145C25.7578 15.0012 24.2211 16.5379 22.3344 16.5379ZM9.19297 6.43164C8.30703 6.43164 7.45391 6.79805 6.84141 7.43242C6.2125 8.08867 5.88984 8.98008 5.93359 9.94805C5.93906 10.0191 5.91172 10.0902 5.85703 10.1449C5.80781 10.1996 5.73672 10.227 5.66562 10.227C4.07422 10.227 2.77812 11.523 2.77812 13.1145C2.77812 14.7059 4.07422 16.002 5.66562 16.002H22.3344C23.9258 16.002 25.2219 14.7059 25.2219 13.1145C25.2219 11.523 23.9258 10.227 22.3344 10.227C22.2633 10.227 22.1922 10.1996 22.143 10.1449C22.0938 10.0902 22.0664 10.0191 22.0664 9.94805C22.1102 8.98008 21.7875 8.08867 21.1586 7.43242C20.5461 6.79805 19.693 6.43164 18.807 6.43164C18.3148 6.43164 17.8445 6.54102 17.407 6.7543C17.3359 6.78711 17.2539 6.79258 17.1828 6.75977C17.1117 6.72695 17.057 6.6668 17.0352 6.5957C16.6141 5.26133 15.3945 4.36992 14 4.36992C12.6055 4.36992 11.3805 5.2668 10.9648 6.5957C10.943 6.67227 10.8883 6.73242 10.8172 6.75977C10.7461 6.79258 10.6641 6.78711 10.593 6.7543C10.1555 6.54102 9.67969 6.43164 9.19297 6.43164Z" fill="#808080"/>
<path d="M14.5197 14.8756H13.4752C13.3439 14.8756 13.2291 14.7771 13.2127 14.6459L13.1197 14.0279C12.8846 13.9623 12.6604 13.8693 12.4525 13.749L11.9494 14.1209C11.8455 14.1975 11.6924 14.1865 11.5994 14.0936L10.8611 13.3553C10.7682 13.2623 10.7572 13.1146 10.8338 13.0053L11.2057 12.5021C11.0854 12.2889 10.9924 12.0646 10.9268 11.835L10.3088 11.742C10.1775 11.7201 10.0791 11.6107 10.0791 11.4795V10.4459C10.0791 10.3146 10.1775 10.1998 10.3088 10.1834L10.9268 10.0904C10.9924 9.85527 11.0854 9.63106 11.2057 9.42324L10.8338 8.92012C10.7572 8.81621 10.7627 8.66309 10.8611 8.57012L11.5994 7.83184C11.6924 7.73887 11.84 7.72793 11.9494 7.80449L12.4525 8.17637C12.6658 8.05606 12.89 7.96309 13.1197 7.89746L13.2127 7.27949C13.2346 7.14824 13.3439 7.0498 13.4752 7.0498H14.5197C14.651 7.0498 14.7658 7.14824 14.7822 7.27949L14.8752 7.89746C15.1104 7.96309 15.3346 8.05606 15.5424 8.17637L16.0455 7.80449C16.1494 7.72793 16.3025 7.7334 16.3955 7.83184L17.1338 8.57012C17.2268 8.66309 17.2377 8.81074 17.1611 8.92012L16.7893 9.42324C16.9096 9.63652 17.0025 9.86074 17.0682 10.0904L17.6861 10.1834C17.8174 10.2053 17.9158 10.3146 17.9158 10.4459V11.4904C17.9158 11.6217 17.8174 11.7365 17.6861 11.7529L17.0682 11.8459C17.0025 12.0811 16.9096 12.3053 16.7893 12.5131L17.1611 13.0162C17.2377 13.1201 17.2322 13.2732 17.1338 13.3662L16.3955 14.1045C16.3025 14.1975 16.1549 14.2084 16.0455 14.1318L15.5424 13.76C15.3291 13.8803 15.1049 13.9732 14.8752 14.0389L14.7822 14.6568C14.7658 14.7771 14.6564 14.8756 14.5197 14.8756ZM13.7104 14.3396H14.29L14.3721 13.7764C14.3885 13.667 14.4705 13.5795 14.5799 13.5521C14.8807 13.4865 15.1596 13.3662 15.4166 13.2021C15.5096 13.142 15.6299 13.1475 15.7174 13.2131L16.1768 13.5521L16.5869 13.142L16.2479 12.6826C16.1822 12.5951 16.1768 12.4748 16.2369 12.3818C16.401 12.1248 16.5158 11.8404 16.5869 11.5451C16.6088 11.4357 16.7018 11.3537 16.8111 11.3373L17.3744 11.2553V10.6756L16.8111 10.5936C16.7018 10.5771 16.6143 10.4951 16.5869 10.3857C16.5213 10.085 16.401 9.80606 16.2369 9.54902C16.1768 9.45606 16.1822 9.33574 16.2479 9.24824L16.5869 8.78887L16.1768 8.37871L15.7174 8.71777C15.6299 8.7834 15.5096 8.78887 15.4166 8.72871C15.1596 8.56465 14.8752 8.4498 14.5799 8.37871C14.4705 8.35684 14.3885 8.26387 14.3721 8.15449L14.29 7.59121H13.7104L13.6283 8.15449C13.6119 8.26387 13.5299 8.35137 13.4205 8.37871C13.1197 8.44434 12.8408 8.56465 12.5838 8.72871C12.4908 8.78887 12.3705 8.7834 12.283 8.71777L11.8236 8.37871L11.4135 8.78887L11.7525 9.24824C11.8182 9.33574 11.8236 9.45606 11.7635 9.54902C11.5994 9.80606 11.4846 10.0904 11.4135 10.3857C11.3916 10.4951 11.2986 10.5771 11.1893 10.5936L10.626 10.6756V11.2553L11.1893 11.3373C11.2986 11.3537 11.3861 11.4357 11.4135 11.5451C11.4791 11.8459 11.5994 12.1248 11.7635 12.3818C11.8236 12.4748 11.8182 12.5951 11.7525 12.6826L11.4135 13.142L11.8236 13.5521L12.283 13.2131C12.3705 13.1475 12.4908 13.142 12.5838 13.2021C12.8408 13.3662 13.1252 13.4811 13.4205 13.5521C13.5299 13.574 13.6119 13.667 13.6283 13.7764L13.7104 14.3396Z" fill="#0088ff"/>
<path d="M14.0006 12.7541C13.0162 12.7541 12.2178 11.9557 12.2178 10.9713C12.2178 9.98691 13.0162 9.18848 14.0006 9.18848C14.985 9.18848 15.7834 9.98691 15.7834 10.9713C15.7834 11.9557 14.985 12.7541 14.0006 12.7541ZM14.0006 9.71895C13.3115 9.71895 12.7482 10.2822 12.7482 10.9713C12.7482 11.6604 13.3115 12.2236 14.0006 12.2236C14.6896 12.2236 15.2529 11.6604 15.2529 10.9713C15.2529 10.2822 14.6896 9.71895 14.0006 9.71895Z" fill="#0088ff"/>
</svg>
