<svg width="25" height="25" viewBox="0 0 25 25" fill="none" xmlns="http://www.w3.org/2000/svg">
<path d="M18.3333 13.542V10.6253H21.6667V9.79199H17.9166C17.6862 9.79199 17.5 9.97866 17.5 10.2086V13.9586C17.5 14.1891 17.6862 14.3753 17.9166 14.3753H24.1667V13.5419H18.3333V13.542Z" fill="#E63D30"/>
<path d="M5.83301 16.458C4.45425 16.458 3.33301 17.5792 3.33301 18.958C3.33301 20.3368 4.45425 21.458 5.83301 21.458C7.21177 21.458 8.33301 20.3368 8.33301 18.958C8.33301 17.5792 7.21172 16.458 5.83301 16.458ZM5.83301 20.6247C4.91382 20.6247 4.16636 19.8771 4.16636 18.958C4.16636 18.0388 4.91387 17.2914 5.83301 17.2914C6.75215 17.2914 7.49966 18.0389 7.49966 18.958C7.49966 19.8771 6.75215 20.6247 5.83301 20.6247Z" fill="#808080"/>
<path d="M20 16.458C18.6212 16.458 17.5 17.5792 17.5 18.958C17.5 20.3368 18.6212 21.458 20 21.458C21.3788 21.458 22.5 20.3368 22.5 18.958C22.5 17.5792 21.3788 16.458 20 16.458ZM20 20.6247C19.0808 20.6247 18.3334 19.8771 18.3334 18.958C18.3334 18.0388 19.0809 17.2914 20 17.2914C20.9192 17.2914 21.6667 18.0389 21.6667 18.958C21.6667 19.8771 20.9192 20.6247 20 20.6247Z" fill="#808080"/>
<path d="M24.9334 14.1496L21.1834 8.31626C21.1067 8.19707 20.9747 8.125 20.833 8.125H16.2497C16.0192 8.125 15.833 8.31167 15.833 8.54165V18.9583C15.833 19.1887 16.0192 19.375 16.2497 19.375H17.9163V18.5416H16.6663V8.95835H20.6055L24.1663 14.4975V18.5417H22.083V19.375H24.583C24.8134 19.375 24.9996 19.1888 24.9996 18.9584V14.375C24.9997 14.2954 24.9768 14.2167 24.9334 14.1496Z" fill="#808080"/>
<path d="M16.25 5.20801H0.41665C0.18667 5.20801 0 5.39468 0 5.62466V18.958C0 19.1884 0.18667 19.3747 0.41665 19.3747H3.75V18.5413H0.83335V6.04131H15.8333V18.5413H7.91665V19.3747H16.25C16.4804 19.3747 16.6667 19.1884 16.6667 18.958V5.62466C16.6667 5.39468 16.4804 5.20801 16.25 5.20801Z" fill="#808080"/>
<path d="M2.91699 16.875H0.416992V17.7083H2.91699V16.875Z" fill="#808080"/>
<path d="M15.8334 16.875H8.75V17.7083H15.8334V16.875Z" fill="#808080"/>
<path d="M24.5836 16.875H22.917V17.7083H24.5836V16.875Z" fill="#808080"/>
<path d="M16.2503 6.875H1.66699V7.70835H16.2503V6.875Z" fill="#808080"/>
<path d="M6.25034 18.542H5.41699V19.3753H6.25034V18.542Z" fill="#808080"/>
<path d="M20.4164 18.542H19.583V19.3753H20.4164V18.542Z" fill="#808080"/>
<path d="M7.50034 3.54199H1.66699V4.37534H7.50034V3.54199Z" fill="#808080"/>
<path d="M14.8333 12H9V12.8333H14.8333V12Z" fill="#E63D30"/>
<path d="M0.83335 3.54199H0V4.37534H0.83335V3.54199Z" fill="#808080"/>
</svg>
