<svg width="30" height="30" viewBox="0 0 30 30" fill="none" xmlns="http://www.w3.org/2000/svg">
<path d="M24.0788 14.6888C24.0351 14.5981 23.9507 14.5344 23.8519 14.5169L23.5713 14.4675C23.6851 13.82 23.7501 13.1631 23.7501 12.5C23.7501 6.29688 18.7032 1.25 12.5001 1.25C11.0501 1.25 9.63819 1.52188 8.30444 2.05813C8.14444 2.1225 8.06631 2.30438 8.13131 2.46438C8.19631 2.625 8.37756 2.70125 8.53756 2.6375C9.79694 2.13187 11.1301 1.875 12.5001 1.875C18.3588 1.875 23.1251 6.64125 23.1251 12.5C23.1251 13.1263 23.0638 13.7475 22.9557 14.3594L22.6207 14.3C22.5219 14.2825 22.4207 14.3138 22.3482 14.3838C22.2763 14.4538 22.2419 14.5544 22.2569 14.6538L22.5469 16.6088C22.5663 16.7419 22.6688 16.8475 22.8013 16.8706C22.8207 16.8738 22.8388 16.875 22.8563 16.875C22.9701 16.875 23.0763 16.8131 23.1307 16.7113L24.0719 14.9731C24.1207 14.885 24.1232 14.7788 24.0788 14.6888Z" fill="#808080"/>
<path d="M16.2256 22.7916C16.1713 22.6279 15.9937 22.5366 15.8313 22.5929C14.7594 22.946 13.6388 23.1254 12.5 23.1254C6.64125 23.1254 1.875 18.3591 1.875 12.5004C1.875 10.1185 2.68625 7.80976 4.15125 5.94476L4.31437 6.13913C4.37312 6.20976 4.46125 6.25038 4.55312 6.25038C4.56062 6.25038 4.56813 6.25038 4.57625 6.24976C4.67625 6.24226 4.76688 6.18726 4.81938 6.10163L5.85375 4.41788C5.92438 4.30288 5.91375 4.15663 5.82687 4.05351C5.74125 3.95038 5.59812 3.91351 5.47312 3.96351L3.63562 4.68976C3.54187 4.72663 3.47187 4.80601 3.4475 4.90351C3.4225 5.00038 3.44625 5.10413 3.51063 5.18101L3.74 5.45476C2.13688 7.44726 1.25 9.93476 1.25 12.5004C1.25 18.7035 6.29688 23.7504 12.5 23.7504C13.7056 23.7504 14.8925 23.5604 16.0269 23.186C16.1906 23.1323 16.28 22.9554 16.2256 22.7916Z" fill="#808080"/>
<path d="M28.4756 25.3819L22.7306 19.6369C22.5537 19.46 22.3181 19.3625 22.0675 19.3625C21.9256 19.3625 21.7906 19.3969 21.6656 19.4562L20.1369 17.9275C21.2706 16.3363 21.875 14.4675 21.875 12.5C21.875 7.33063 17.6694 3.125 12.5 3.125C7.33063 3.125 3.125 7.33063 3.125 12.5C3.125 17.6694 7.33063 21.875 12.5 21.875C14.4688 21.875 16.3481 21.2587 17.925 20.135L19.4562 21.6656C19.3969 21.79 19.3625 21.9256 19.3625 22.0675C19.3625 22.3175 19.46 22.5531 19.6369 22.7306L25.3819 28.4756C25.5594 28.6525 25.7944 28.75 26.045 28.75C26.2956 28.75 26.5306 28.6525 26.7081 28.4756L28.4756 26.7081C28.8413 26.3419 28.8413 25.7475 28.4756 25.3819ZM19.0225 18.8C18.9044 18.6769 18.7056 18.6731 18.5806 18.7925C16.94 20.3775 14.7806 21.25 12.5 21.25C7.675 21.25 3.75 17.325 3.75 12.5C3.75 7.675 7.675 3.75 12.5 3.75C17.325 3.75 21.25 7.675 21.25 12.5C21.25 14.4225 20.6381 16.2469 19.4819 17.7744C19.3794 17.91 19.4056 18.1006 19.5369 18.2056C19.5363 18.2063 19.5356 18.2075 19.535 18.2081L21.1838 19.8569L19.8581 21.1831L18.43 19.755C18.63 19.5912 18.8275 19.4225 19.0156 19.2412C19.1388 19.1219 19.1425 18.9237 19.0225 18.8ZM28.0338 26.2656L26.2663 28.0331C26.1481 28.1506 25.9425 28.1506 25.8244 28.0331L20.0794 22.2881C20.02 22.2288 19.9881 22.1506 19.9881 22.0669C19.9881 21.9831 20.0206 21.905 20.0794 21.8456L21.8469 20.0775C21.9063 20.0188 21.9844 19.9862 22.0681 19.9862C22.1519 19.9862 22.23 20.0188 22.2894 20.0775L28.0344 25.8225C28.1556 25.9456 28.1556 26.1438 28.0338 26.2656Z" fill="#808080"/>
<path d="M12.3311 18.75C8.8848 18.75 6.08105 15.9463 6.08105 12.5C6.08105 9.05375 8.8848 6.25 12.3311 6.25C13.5611 6.25 14.7504 6.60688 15.7723 7.28188C15.9161 7.37688 15.9561 7.57063 15.8611 7.715C15.7667 7.85875 15.5723 7.8975 15.4286 7.80312C14.5092 7.19625 13.4379 6.875 12.3311 6.875C9.22918 6.875 6.70605 9.39875 6.70605 12.5C6.70605 15.6013 9.22918 18.125 12.3311 18.125C15.4329 18.125 17.9561 15.6013 17.9561 12.5C17.9561 12.3 17.9454 12.1019 17.9254 11.9069C17.9079 11.735 18.0323 11.5813 18.2036 11.5638C18.3698 11.5494 18.5292 11.6706 18.5467 11.8425C18.5692 12.0588 18.5811 12.2781 18.5811 12.5C18.5811 15.9463 15.7773 18.75 12.3311 18.75Z" fill="#808080"/>
<path d="M12.3387 15.3121C12.005 15.3121 11.6912 15.1821 11.455 14.9458L8.80375 12.2939C8.5675 12.0583 8.4375 11.7446 8.4375 11.4102C8.4375 11.0764 8.5675 10.7627 8.80375 10.5264C9.27625 10.0539 10.0987 10.0539 10.5712 10.5264L12.3387 12.2946L16.9794 7.65395C17.4512 7.18207 18.2744 7.18145 18.7475 7.65395C19.2344 8.14145 19.2344 8.93457 18.7475 9.42145L13.2231 14.9458C12.9869 15.1821 12.6731 15.3121 12.3387 15.3121Z" fill="#E63D30"/>
</svg>
