<svg width="31" height="31" viewBox="0 0 31 31" fill="none" xmlns="http://www.w3.org/2000/svg">
<path fill-rule="evenodd" clip-rule="evenodd" d="M21.292 12.496C19.6354 12.496 18.2876 13.8439 18.2876 15.5005C18.2876 17.1576 19.6354 18.5049 21.292 18.5049C22.9486 18.5049 24.2965 17.1576 24.2965 15.5005C24.2965 13.8439 22.9486 12.496 21.292 12.496ZM21.292 19.1421C19.284 19.1421 17.6504 17.5088 17.6504 15.5005C17.6504 13.4927 19.284 11.8594 21.292 11.8594C23.2999 11.8594 24.9337 13.4927 24.9337 15.5005C24.9337 17.5088 23.2999 19.1421 21.292 19.1421Z" fill="#808080"/>
<path fill-rule="evenodd" clip-rule="evenodd" d="M18.1552 25.8628C18.1014 25.8628 18.0468 25.8495 17.9968 25.8207C17.8442 25.7328 17.7917 25.5381 17.8793 25.3854L18.7061 23.9474V21.3528C18.7061 21.1769 18.8488 21.0342 19.0247 21.0342C19.2007 21.0342 19.3433 21.1769 19.3433 21.3528L19.3433 24.0325C19.3433 24.0884 19.3286 24.1432 19.3009 24.1913L18.4318 25.7029C18.3729 25.8058 18.2656 25.8628 18.1552 25.8628Z" fill="#808080"/>
<path fill-rule="evenodd" clip-rule="evenodd" d="M18.1562 25.8627C17.8318 25.8627 17.5678 26.1266 17.5678 26.4513C17.5679 26.7754 17.8318 27.0398 18.1562 27.0398C18.4806 27.0397 18.7446 26.7754 18.7446 26.4513C18.7446 26.1266 18.4806 25.8628 18.1562 25.8627ZM18.1562 27.6769C17.4805 27.6769 16.9307 27.1272 16.9307 26.4513C16.9307 25.7754 17.4805 25.2256 18.1562 25.2256C18.832 25.2256 19.3817 25.7754 19.3817 26.4513C19.3817 27.1271 18.832 27.6769 18.1562 27.6769Z" fill="#808080"/>
<path fill-rule="evenodd" clip-rule="evenodd" d="M16.1119 21.6714H9.65355C9.47763 21.6714 9.33496 21.5287 9.33496 21.3529V9.64866C9.33496 9.47276 9.47759 9.33008 9.65355 9.33008H16.1119C16.2879 9.33008 16.4305 9.4728 16.4305 9.64866C16.4305 9.82455 16.2878 9.96725 16.1119 9.96725H9.97213V21.0343H16.1119C16.2879 21.0343 16.4305 21.177 16.4305 21.3529C16.4305 21.5287 16.2879 21.6714 16.1119 21.6714Z" fill="#808080"/>
<path fill-rule="evenodd" clip-rule="evenodd" d="M12.7896 25.8628C12.6792 25.8628 12.572 25.8058 12.5131 25.7029L11.6439 24.1913C11.6162 24.1432 11.6016 24.0884 11.6016 24.0326L11.6016 21.3528C11.6016 21.1769 11.7442 21.0342 11.9201 21.0342C12.0961 21.0342 12.2387 21.1769 12.2387 21.3528L12.2388 23.9474L13.0655 25.3854C13.1532 25.5381 13.1006 25.7328 12.9481 25.8207C12.898 25.8495 12.8434 25.8628 12.7896 25.8628Z" fill="#808080"/>
<path fill-rule="evenodd" clip-rule="evenodd" d="M19.0247 9.96744C18.8488 9.96744 18.7061 9.82476 18.7061 9.64886V7.05368L17.8793 5.61619C17.7917 5.46352 17.8442 5.26886 17.9968 5.1809C18.1494 5.09351 18.344 5.14607 18.4317 5.29872L19.3009 6.80977C19.3286 6.85845 19.3432 6.91321 19.3432 6.9691L19.3433 9.64886C19.3433 9.82474 19.2006 9.96744 19.0247 9.96744Z" fill="#808080"/>
<path fill-rule="evenodd" clip-rule="evenodd" d="M18.1562 3.96139C17.8318 3.96139 17.5678 4.22524 17.5678 4.5499C17.5679 4.87401 17.8318 5.13839 18.1562 5.13839C18.4806 5.13839 18.7446 4.87403 18.7446 4.5499C18.7446 4.22524 18.4806 3.96139 18.1562 3.96139ZM18.1562 5.77557C17.4805 5.77557 16.9307 5.22578 16.9307 4.5499C16.9307 3.874 17.4805 3.32422 18.1562 3.32422C18.832 3.32422 19.3817 3.874 19.3817 4.5499C19.3817 5.22578 18.832 5.77557 18.1562 5.77557Z" fill="#808080"/>
<path fill-rule="evenodd" clip-rule="evenodd" d="M11.9202 9.96744C11.7442 9.96744 11.6016 9.82475 11.6016 9.64885L11.6016 6.96906C11.6016 6.91321 11.6162 6.85846 11.6439 6.8098L12.5131 5.29869C12.6008 5.14605 12.7956 5.09353 12.9481 5.1809C13.1006 5.26886 13.1532 5.46353 13.0655 5.61619L12.2388 7.05368V9.64885C12.2388 9.82474 12.0961 9.96744 11.9202 9.96744Z" fill="#808080"/>
<path fill-rule="evenodd" clip-rule="evenodd" d="M12.79 3.96139C12.4655 3.96139 12.2016 4.22524 12.2016 4.5499C12.2016 4.87401 12.4655 5.13839 12.79 5.13839C13.1144 5.13839 13.3783 4.87403 13.3783 4.5499C13.3783 4.22524 13.1144 3.96139 12.79 3.96139ZM12.79 5.77557C12.1142 5.77557 11.5645 5.22578 11.5645 4.5499C11.5645 3.874 12.1142 3.32422 12.79 3.32422C13.4658 3.32422 14.0155 3.874 14.0155 4.5499C14.0155 5.22578 13.4658 5.77557 12.79 5.77557Z" fill="#808080"/>
<path fill-rule="evenodd" clip-rule="evenodd" d="M3.71995 20.7642C3.63841 20.7642 3.55688 20.7333 3.49465 20.6713C3.37029 20.5468 3.37025 20.345 3.49465 20.2205L5.7242 17.991C5.78401 17.9312 5.86498 17.8975 5.94947 17.8975L9.65283 17.8975C9.82879 17.8975 9.97142 18.0402 9.97142 18.2161C9.97142 18.3925 9.82877 18.5347 9.65283 18.5347L6.08148 18.5346L3.94523 20.6713C3.883 20.7332 3.80146 20.7642 3.71995 20.7642Z" fill="#808080"/>
<path fill-rule="evenodd" clip-rule="evenodd" d="M2.81343 19.8579C2.48896 19.8579 2.22501 20.1217 2.22501 20.4464C2.22505 20.7705 2.48896 21.0343 2.81341 21.0343C3.13781 21.0343 3.40174 20.7705 3.40174 20.4464C3.40176 20.1217 3.13779 19.8579 2.81343 19.8579ZM2.81343 21.6715C2.13766 21.6715 1.58789 21.1217 1.58789 20.4464C1.58791 19.7705 2.13762 19.2207 2.81341 19.2207C3.48915 19.2207 4.03892 19.7705 4.03892 20.4464C4.03894 21.1217 3.48911 21.6715 2.81343 21.6715Z" fill="#808080"/>
<path fill-rule="evenodd" clip-rule="evenodd" d="M9.65283 13.1029H5.94948C5.86497 13.1029 5.78399 13.0697 5.7242 13.01L3.49467 10.7804C3.37029 10.656 3.37025 10.4541 3.49465 10.3297C3.61906 10.2052 3.82082 10.2052 3.94519 10.3297L6.08148 12.4657H9.65283C9.82879 12.4657 9.97142 12.6084 9.97142 12.7843C9.97142 12.9607 9.82877 13.1029 9.65283 13.1029Z" fill="#808080"/>
<path fill-rule="evenodd" clip-rule="evenodd" d="M2.81343 9.96725C2.48896 9.96725 2.22501 10.2311 2.22501 10.5552C2.22505 10.8799 2.48896 11.1437 2.81341 11.1437C3.13781 11.1437 3.40174 10.8799 3.40174 10.5552C3.40176 10.2311 3.13779 9.96725 2.81343 9.96725ZM2.81343 11.7809C2.13766 11.7809 1.58789 11.2311 1.58789 10.5552C1.58791 9.87986 2.13762 9.33008 2.81341 9.33008C3.48915 9.33008 4.03892 9.87986 4.03892 10.5552C4.03894 11.2311 3.48911 11.7809 2.81343 11.7809Z" fill="#808080"/>
<path fill-rule="evenodd" clip-rule="evenodd" d="M12.79 25.8627C12.4655 25.8627 12.2016 26.1266 12.2016 26.4513C12.2016 26.7754 12.4655 27.0398 12.79 27.0398C13.1144 27.0397 13.3783 26.7754 13.3783 26.4513C13.3783 26.1266 13.1144 25.8628 12.79 25.8627ZM12.79 27.6769C12.1142 27.6769 11.5645 27.1272 11.5645 26.4513C11.5645 25.7754 12.1142 25.2256 12.79 25.2256C13.4658 25.2256 14.0155 25.7754 14.0155 26.4513C14.0155 27.1271 13.4658 27.6769 12.79 27.6769Z" fill="#808080"/>
<path fill-rule="evenodd" clip-rule="evenodd" d="M18.277 20.1123C18.3343 20.1123 18.3918 20.1278 18.4433 20.1593C18.9305 20.4574 19.4582 20.6765 20.0119 20.8092C20.1552 20.8435 20.2561 20.9718 20.2561 21.1189L20.2561 22.724C20.2561 22.8667 20.3724 22.9834 20.5154 22.9834H22.0686C22.2116 22.9834 22.3279 22.8668 22.3279 22.724V21.1195C22.3279 20.9724 22.4289 20.8441 22.572 20.8097C23.1259 20.6764 23.6536 20.458 24.1406 20.1593C24.2661 20.0824 24.4282 20.1012 24.5327 20.2058L25.6677 21.3407C25.7684 21.4414 25.9332 21.442 26.0344 21.3407L27.1323 20.2423C27.2335 20.1411 27.2335 19.9768 27.1323 19.8756L25.9973 18.7406C25.8934 18.6366 25.874 18.4746 25.9509 18.349C26.2495 17.8617 26.468 17.3341 26.6013 16.7804C26.6356 16.6372 26.7634 16.5359 26.911 16.5359L28.5156 16.5359C28.6589 16.5359 28.775 16.4198 28.775 16.2765L28.775 14.7234C28.775 14.5807 28.6588 14.4646 28.5156 14.4646L26.911 14.4645C26.7639 14.4645 26.6362 14.3634 26.6013 14.2201C26.4686 13.6664 26.2495 13.1388 25.9509 12.6515C25.874 12.5259 25.8933 12.3639 25.9973 12.2599L27.1323 11.1249C27.181 11.0763 27.2075 11.011 27.2075 10.9413C27.2075 10.8716 27.181 10.8064 27.1323 10.7582L26.0338 9.65976C25.9332 9.55856 25.7683 9.55856 25.6671 9.65978L24.5322 10.7947C24.4282 10.8993 24.2661 10.9181 24.1406 10.8412C23.6536 10.5431 23.1258 10.3241 22.572 10.1913C22.4288 10.1565 22.3278 10.0287 22.3278 9.88158L22.3278 8.27647C22.3278 8.13376 22.2115 8.01707 22.0685 8.01707L20.5154 8.01706C20.3724 8.01706 20.2561 8.13378 20.2561 8.27648L20.2561 9.88158C20.2561 10.0287 20.1551 10.1565 20.0119 10.1913C19.4583 10.3241 18.9306 10.5431 18.4434 10.8412C18.3178 10.9181 18.1558 10.8987 18.0517 10.7948L16.9165 9.65976C16.868 9.61108 16.8029 9.58455 16.7332 9.58455C16.6635 9.58455 16.5984 9.6111 16.5499 9.65978L15.4516 10.7582C15.3505 10.8595 15.3505 11.0237 15.4516 11.125L16.5866 12.2599C16.6908 12.3639 16.7099 12.526 16.6329 12.6515C16.3344 13.1388 16.1156 13.6664 15.9825 14.2201C15.9482 14.3633 15.8201 14.4646 15.6728 14.4646L14.0684 14.4645C13.9254 14.4645 13.809 14.5807 13.809 14.7234V16.2771C13.809 16.4198 13.9254 16.5359 14.0684 16.5359L15.6727 16.5359C15.82 16.5359 15.9481 16.6372 15.9825 16.7804C16.1156 17.3341 16.3344 17.8617 16.6329 18.349C16.7099 18.4745 16.6907 18.6366 16.5866 18.7406L15.4517 19.8756C15.4031 19.9242 15.3764 19.9895 15.3764 20.0592C15.3764 20.1289 15.4031 20.1936 15.4516 20.2423L16.5499 21.3407C16.6509 21.4419 16.8155 21.442 16.9166 21.3407L18.0516 20.2058C18.1131 20.1444 18.1947 20.1123 18.277 20.1123ZM22.0686 23.6201H20.5154C20.0211 23.6201 19.619 23.218 19.619 22.724L19.619 21.3651C19.1697 21.2367 18.7373 21.0576 18.3284 20.8297L17.3672 21.791C17.0177 22.1405 16.4489 22.1405 16.0993 21.791L15.0011 20.693C14.8322 20.5238 14.7392 20.2987 14.7392 20.0592C14.7392 19.8191 14.8322 19.594 15.0011 19.4253L15.9623 18.464C15.7342 18.0553 15.5549 17.6228 15.427 17.1731L14.0684 17.1731C13.5741 17.1731 13.1719 16.771 13.1719 16.2771V14.7234C13.1719 14.2295 13.574 13.8274 14.0684 13.8274H15.4271C15.555 13.3777 15.7342 12.9452 15.9622 12.5365L15.001 11.5751C14.8322 11.4065 14.7392 11.1814 14.7392 10.9413C14.7392 10.7018 14.8322 10.4767 15.001 10.3075L16.0994 9.20954C16.2682 9.04029 16.4933 8.94739 16.7332 8.94739C16.9731 8.94738 17.1982 9.04031 17.3671 9.20956L18.3285 10.1708C18.7374 9.94241 19.1697 9.76322 19.6189 9.63545L19.6189 8.27647C19.6189 7.78253 20.0211 7.3799 20.5154 7.3799L22.0685 7.37988C22.5629 7.37988 22.965 7.78255 22.965 8.27648L22.965 9.63543C23.4144 9.76319 23.8469 9.94297 24.2556 10.1703L25.2169 9.209C25.5665 8.85997 26.135 8.85999 26.4846 9.209L27.5831 10.3075C27.7518 10.4761 27.8447 10.7018 27.8447 10.9413C27.8447 11.1814 27.7517 11.4065 27.5831 11.5752L26.6218 12.5364C26.8497 12.9452 27.0288 13.3777 27.1572 13.8274H28.5156C29.0101 13.8274 29.4122 14.2295 29.4122 14.7234L29.4122 16.2765C29.4122 16.771 29.0101 17.1731 28.5156 17.1731L27.1566 17.1731C27.0289 17.6228 26.8496 18.0548 26.6218 18.4641L27.5831 19.4248C27.9326 19.7743 27.9326 20.3435 27.5831 20.6931L26.4846 21.791C26.1351 22.1405 25.5665 22.1405 25.2169 21.791L24.2556 20.8302C23.8469 21.0581 23.4144 21.2373 22.965 21.3651L22.9651 22.724C22.9651 23.218 22.5629 23.6201 22.0686 23.6201Z" fill="#E63D30"/>
</svg>
