<svg width="27" height="27" viewBox="0 0 27 27" fill="none" xmlns="http://www.w3.org/2000/svg">
<g clip-path="url(#clip0_2669_146)">
<path d="M14.168 12.8334C13.9618 12.6272 13.628 12.6272 13.4218 12.8334C13.2162 13.039 13.2162 13.3728 13.4218 13.579C13.628 13.7847 13.9618 13.7847 14.168 13.579C14.3737 13.3728 14.3737 13.039 14.168 12.8334Z" fill="#E63D30"/>
<path d="M20.8797 6.12046C19.8493 5.09008 18.1812 5.09003 17.1507 6.12046C16.1229 7.1482 16.1229 8.82093 17.1508 9.84951C18.179 10.877 19.8517 10.8774 20.8797 9.8494C21.91 8.81908 21.9102 7.15094 20.8797 6.12046ZM20.1339 9.10358C19.5173 9.72026 18.5136 9.72026 17.8966 9.10369C17.2799 8.48659 17.2798 7.48285 17.8965 6.86623C18.5147 6.24802 19.5156 6.24792 20.1339 6.86623C20.7521 7.48438 20.7522 8.48533 20.1339 9.10358Z" fill="#E63D30"/>
<path d="M26.8455 0.154464C26.7419 0.0509465 26.6006 -0.00516279 26.4537 0.000374308C26.3344 0.00464578 23.4955 0.118763 20.1207 1.31156C17.4165 2.26637 15.1625 3.6334 13.4213 5.37468C13.0311 5.76486 12.6514 6.17862 12.2881 6.60845C10.5665 5.59501 9.18682 5.91278 8.31465 6.37953C6.30648 7.45426 5.06348 10.3724 5.06348 12.4596C5.06363 12.6728 5.19215 12.8652 5.38916 12.9467C5.4544 12.9738 5.52295 12.9869 5.59087 12.9869C5.72814 12.9869 5.86298 12.9333 5.96386 12.8325C7.02292 11.7734 8.3292 11.8396 8.75593 11.8957L8.94061 12.0804C8.57716 12.9453 8.28438 13.8053 8.06965 14.6417C7.99213 14.9444 8.01828 15.2647 8.13351 15.5577C7.62578 15.7917 7.13593 16.1352 6.70942 16.5617C5.35199 17.9192 5.07634 21.2274 5.06527 21.3676C5.05314 21.5214 5.10893 21.6729 5.21804 21.782C5.31734 21.8812 5.45165 21.9365 5.59087 21.9365C5.60469 21.9365 5.61856 21.9359 5.63243 21.9348C5.77259 21.9238 9.08093 21.6482 10.4384 20.2907C10.8647 19.8644 11.2082 19.3746 11.4422 18.867C11.7524 18.9889 12.0717 19.004 12.3587 18.9304C13.1948 18.7157 14.0547 18.423 14.9196 18.0595L15.1043 18.2442C15.1603 18.671 15.2266 19.9773 14.1676 21.0362C14.0168 21.1871 13.9717 21.4139 14.0533 21.6109C14.1349 21.8079 14.3271 21.9364 14.5405 21.9364C16.6277 21.9364 19.5457 20.6934 20.6205 18.6852C21.0872 17.8132 21.405 16.4335 20.3915 14.7118C20.8212 14.3487 21.235 13.969 21.6253 13.5787C23.3666 11.8374 24.7336 9.58335 25.6884 6.87935C26.8812 3.50446 26.9953 0.665459 26.9996 0.54628C27.0048 0.399942 26.949 0.258034 26.8455 0.154464ZM6.24251 11.3253C6.57009 9.73997 7.52158 8.00032 8.81251 7.3094C9.67519 6.84776 10.6181 6.89301 11.6207 7.44181C10.7666 8.56516 10.024 9.77541 9.40509 11.0534C9.39723 11.0486 9.30231 10.9292 9.12597 10.8895C9.05346 10.8731 7.65816 10.573 6.24251 11.3253ZM9.6926 19.5449C8.9675 20.27 7.26656 20.6524 6.19146 20.8086C6.34766 19.7334 6.73014 18.0325 7.45519 17.3075C7.86124 16.9014 8.33205 16.5936 8.80529 16.4202L10.5799 18.1948C10.4065 18.668 10.0987 19.1389 9.6926 19.5449ZM12.0968 17.9087C11.9441 17.9478 11.7674 17.8904 11.636 17.7592C10.9537 17.077 10.6868 16.8101 10.6031 16.7264C10.4495 16.5729 10.073 16.1963 9.24119 15.3645C9.10967 15.2327 9.0523 15.056 9.09127 14.9036C9.26018 14.2458 9.48108 13.5709 9.74971 12.8895L14.1106 17.2504C13.4291 17.5191 12.7543 17.7399 12.0968 17.9087ZM19.6907 18.1876C18.9998 19.4785 17.2602 20.43 15.6749 20.7575C16.1803 19.8064 16.2918 18.5955 16.1071 17.8613C16.0642 17.6908 15.9529 17.605 15.9467 17.595C17.2246 16.976 18.4348 16.2335 19.5583 15.3793C20.1071 16.382 20.1523 17.3251 19.6907 18.1876ZM20.8796 12.8329C20.4045 13.308 19.8928 13.7671 19.3588 14.1972C18.0751 15.2308 16.6623 16.1063 15.1549 16.8033L10.1968 11.8453C10.8938 10.3378 11.7693 8.92496 12.8028 7.64146C13.2333 7.10711 13.6923 6.59538 14.1673 6.12045C15.7295 4.55815 17.7458 3.31478 20.1616 2.41977L24.5803 6.83848C23.6854 9.25429 22.4421 11.2705 20.8796 12.8329ZM24.9597 5.72626L21.2738 2.04035C23.282 1.41661 25.029 1.18305 25.9011 1.09909C25.8171 1.97126 25.5834 3.7183 24.9597 5.72626Z" fill="#808080"/>
<path d="M12.6757 21.7823C12.4697 21.5764 12.1358 21.5765 11.9299 21.7824L10.4386 23.2743C10.2327 23.4803 10.2327 23.8142 10.4387 24.02C10.6447 24.2259 10.9786 24.2259 11.1845 24.0199L12.6758 22.5281C12.8817 22.3221 12.8816 21.9882 12.6757 21.7823Z" fill="#808080"/>
<path d="M5.21832 14.3244C5.01244 14.1184 4.67858 14.1184 4.47255 14.3243L2.9807 15.8156C2.77472 16.0215 2.77466 16.3554 2.98054 16.5614C3.18636 16.7673 3.52022 16.7675 3.72631 16.5615L5.21816 15.0702C5.42414 14.8643 5.42419 14.5304 5.21832 14.3244Z" fill="#808080"/>
<path d="M8.94709 22.5285C8.74127 22.3225 8.4073 22.3225 8.20132 22.5284L4.6291 26.1001C4.42312 26.306 4.42312 26.64 4.62905 26.8459C4.83487 27.0518 5.16884 27.0519 5.37482 26.8459L8.94704 23.2742C9.15302 23.0683 9.15302 22.7344 8.94709 22.5285Z" fill="#808080"/>
<path d="M4.72834 22.5285C4.52246 22.3225 4.1885 22.3225 3.98257 22.5284L0.410351 26.1001C0.204371 26.306 0.204371 26.64 0.410298 26.8459C0.61612 27.0518 0.950086 27.0519 1.15607 26.8459L4.72829 23.2742C4.93427 23.0683 4.93427 22.7344 4.72834 22.5285Z" fill="#808080"/>
<path d="M4.4719 18.0528C4.26603 17.847 3.93206 17.847 3.72613 18.0529L0.154439 21.6251C-0.0514884 21.8311 -0.0514884 22.1649 0.154492 22.3709C0.360419 22.5769 0.694332 22.5769 0.90026 22.3709L4.47195 18.7987C4.67788 18.5927 4.67788 18.2588 4.4719 18.0528Z" fill="#808080"/>
<path d="M16.4047 10.5949C16.1987 10.3889 15.8649 10.3889 15.6589 10.5949L14.9132 11.3405C14.7073 11.5465 14.7073 11.8804 14.9132 12.0864C15.1192 12.2923 15.4531 12.2923 15.6591 12.0864L16.4047 11.3407C16.6106 11.1348 16.6106 10.8009 16.4047 10.5949Z" fill="#E63D30"/>
</g>
<defs>
<clipPath id="clip0_2669_146">
<rect width="27" height="27" fill="white"/>
</clipPath>
</defs>
</svg>
